<?xml version="1.0" standalone="no"?>
<!DOCTYPE svg PUBLIC "-//W3C//DTD SVG 20010904//EN"
 "http://www.w3.org/TR/2001/REC-SVG-20010904/DTD/svg10.dtd">
<svg version="1.0" xmlns="http://www.w3.org/2000/svg"
 width="1024.000000pt" height="1024.000000pt" viewBox="0 0 1024.000000 1024.000000"
 preserveAspectRatio="xMidYMid meet">

<g transform="translate(0.000000,1024.000000) scale(0.100000,-0.100000)"
fill="#000000" stroke="none">
<path d="M5115 9654 c-492 -35 -697 -66 -955 -145 -133 -40 -373 -140 -402
-166 -9 -8 -24 -13 -33 -9 -9 3 -13 2 -10 -3 6 -10 -93 -68 -108 -63 -5 1 -6
-1 -3 -6 5 -9 -103 -79 -116 -74 -4 1 -8 -2 -8 -8 0 -5 -17 -21 -37 -34 -47
-30 -137 -110 -222 -198 -35 -37 -68 -65 -73 -62 -5 3 -7 2 -6 -3 4 -13 -44
-73 -54 -67 -5 3 -7 2 -6 -3 2 -4 -1 -8 -7 -8 -5 0 -9 4 -7 8 1 5 -2 6 -8 2
-8 -5 -8 -11 -1 -19 8 -10 1 -25 -25 -59 -20 -26 -40 -44 -45 -41 -5 3 -8 0
-7 -8 2 -7 -3 -12 -10 -10 -8 1 -11 -2 -7 -8 4 -6 -7 -27 -22 -48 -177 -229
-248 -411 -323 -832 -12 -63 -39 -176 -60 -251 -34 -116 -40 -151 -40 -231 0
-101 16 -176 56 -272 15 -34 27 -69 27 -78 1 -9 5 -16 10 -15 14 3 59 -114 64
-170 3 -29 2 -53 -3 -53 -5 0 -9 -15 -9 -32 1 -38 -2 -43 -131 -253 -55 -88
-112 -185 -128 -215 -16 -30 -52 -86 -81 -125 -29 -38 -60 -82 -70 -97 -9 -15
-22 -25 -28 -21 -5 3 -7 1 -4 -4 4 -6 -8 -42 -26 -79 -27 -58 -32 -81 -32
-140 l0 -71 52 -60 c61 -70 108 -91 258 -118 147 -27 165 -60 129 -226 -9 -41
-25 -89 -36 -107 -24 -40 -21 -106 8 -149 10 -16 18 -30 17 -33 0 -8 50 -36
91 -50 24 -8 34 -15 26 -20 -6 -4 -11 -11 -9 -16 1 -5 -8 -14 -20 -20 -27 -14
-40 -27 -19 -19 15 6 16 3 7 -27 -11 -39 -9 -108 4 -126 6 -8 6 -12 -2 -12 -6
0 -11 -8 -11 -17 0 -14 2 -15 9 -5 6 10 11 10 21 -3 8 -9 27 -23 44 -32 35
-18 78 -62 114 -116 l25 -37 -13 -104 c-26 -211 4 -340 102 -437 134 -134 255
-166 483 -129 72 11 173 27 225 35 141 21 477 48 515 41 40 -8 97 -68 115
-120 l12 -36 488 0 c381 0 490 3 494 13 5 10 7 10 12 0 4 -10 40 -13 128 -13
106 0 125 2 139 18 24 26 21 32 -14 32 -17 0 -28 4 -24 10 3 5 15 10 25 10 10
0 21 4 24 8 3 5 -16 8 -42 8 l-47 -1 2 135 c1 111 -1 136 -14 146 -14 9 -12
13 15 29 17 10 36 30 42 44 7 14 16 34 21 43 5 10 9 26 9 37 0 11 6 21 13 24
6 2 9 7 6 11 -10 11 -101 -53 -93 -67 4 -6 4 -9 -1 -5 -4 4 -14 3 -22 -4 -11
-9 -18 -8 -30 5 -14 14 -15 30 -7 127 5 61 6 122 2 137 -5 20 -1 33 16 54 13
15 27 25 30 22 12 -12 6 43 -6 56 -10 11 -10 13 0 7 6 -4 12 -2 12 4 0 22 29
40 65 40 31 0 36 -3 31 -18 -5 -13 -3 -13 9 3 8 11 18 25 22 30 13 18 14 35 0
35 -36 -1 -146 -49 -166 -74 -8 -9 -26 -16 -41 -16 -41 0 -54 41 -47 139 3 42
12 91 18 107 8 17 13 78 13 150 1 102 4 125 19 141 14 16 16 28 9 58 -4 21
-13 40 -20 43 -9 3 -10 -3 -3 -21 12 -31 -8 -63 -33 -54 -15 6 -17 17 -13 68
4 46 2 62 -9 66 -8 3 -14 11 -14 18 0 7 -11 20 -25 29 -24 16 -24 15 -30 -18
-4 -18 -6 -42 -4 -52 1 -11 -1 -45 -5 -76 -10 -67 1 -159 15 -137 6 10 9 5 9
-18 0 -18 -4 -33 -9 -33 -5 0 -9 -6 -8 -12 3 -83 -42 68 -89 299 -24 122 -25
182 -2 229 7 15 7 28 -2 44 -15 28 -19 23 -33 -39 -15 -63 -35 -56 -46 15 -6
40 -8 45 -15 27 -13 -41 -29 -26 -22 21 4 28 3 47 -4 51 -6 3 -7 12 -3 18 4 7
-1 6 -11 -2 -10 -8 -15 -23 -13 -33 4 -15 1 -17 -19 -12 -14 4 -24 2 -23 -2 4
-25 -3 -42 -20 -47 -11 -2 -21 -15 -24 -28 -4 -22 -4 -21 -3 2 0 15 -5 33 -12
42 -10 12 -10 16 3 21 18 7 20 37 3 54 -10 10 -10 15 -1 20 14 9 16 22 14 95
-1 41 -5 57 -15 57 -8 0 -24 21 -36 48 -30 64 -49 84 -80 81 -14 -1 -44 1 -68
5 -32 6 -49 4 -66 -7 -31 -21 -140 -49 -144 -37 -2 5 -9 7 -16 4 -8 -3 -16 5
-20 21 -5 18 -12 25 -24 23 -9 -2 -16 -11 -14 -19 1 -9 -9 -26 -23 -39 -30
-28 -31 -38 -7 -56 16 -13 16 -15 -5 -33 -13 -11 -23 -22 -23 -25 0 -3 13 -19
30 -36 16 -16 36 -51 45 -77 20 -59 32 -73 58 -73 16 0 18 -3 9 -12 -19 -19
-14 -26 13 -23 14 1 23 0 20 -3 -3 -3 7 -13 23 -22 24 -15 28 -15 38 -1 10 13
14 13 28 2 13 -11 18 -10 33 4 11 12 18 14 21 6 2 -6 9 -11 16 -11 28 0 35
-22 21 -58 -19 -44 -19 -45 5 -37 26 8 25 0 -5 -32 -17 -20 -23 -34 -19 -53
11 -49 27 -80 41 -80 28 0 73 -61 80 -107 3 -25 16 -60 29 -79 13 -19 23 -40
21 -47 -1 -8 8 -11 26 -9 22 2 27 -1 27 -18 0 -12 4 -18 11 -15 6 4 9 19 8 33
-2 15 -1 32 2 37 4 6 5 20 4 32 -1 14 6 24 19 28 19 6 19 8 3 12 -14 4 -16 8
-6 19 9 11 9 17 0 28 -10 11 -10 20 -1 36 6 12 9 29 6 37 -6 16 10 43 25 43 9
0 3 -235 -7 -252 -8 -13 -23 -71 -30 -113 -2 -16 -8 -31 -13 -33 -4 -1 -6 -14
-3 -27 5 -27 -6 -32 -27 -12 -10 8 -12 8 -7 0 3 -6 2 -14 -4 -18 -5 -3 -10 -1
-10 5 0 7 -7 9 -16 6 -8 -3 -12 -2 -9 3 3 5 1 13 -5 16 -6 4 -10 3 -9 -2 1 -4
1 -16 0 -27 -1 -15 -4 -16 -16 -6 -8 7 -15 21 -15 31 0 11 -4 19 -10 19 -5 0
-10 -8 -10 -17 0 -15 -2 -16 -10 -3 -8 12 -10 12 -10 1 0 -7 10 -23 23 -34 14
-13 18 -21 10 -24 -9 -3 -9 -12 -2 -29 5 -14 9 -38 9 -53 0 -16 7 -44 15 -64
8 -19 11 -38 7 -42 -4 -5 -2 -5 5 -1 23 13 24 -14 1 -46 -13 -18 -23 -34 -24
-36 -5 -11 -204 -69 -224 -66 -26 5 -319 -137 -433 -210 -31 -20 -101 -58
-155 -84 -53 -27 -115 -60 -137 -74 -90 -57 -220 -100 -347 -116 -24 -2 -35
-8 -32 -17 5 -13 -69 -39 -102 -34 -10 1 -26 -1 -34 -4 -8 -3 -26 -8 -40 -10
-20 -4 -18 -5 10 -7 28 -3 25 -4 -20 -9 -119 -13 -203 28 -241 117 -27 62 -23
154 6 166 11 4 13 -3 11 -28 -2 -29 0 -32 20 -28 16 3 21 9 17 21 -5 12 -3 13
6 5 9 -8 9 -17 0 -37 -13 -28 -29 -36 -29 -15 0 6 -3 9 -6 5 -8 -8 6 -47 17
-47 6 0 21 -12 35 -27 15 -17 27 -23 30 -17 3 7 15 9 26 6 16 -4 20 -1 16 9
-3 8 1 24 9 34 14 20 15 20 11 0 -2 -13 3 -20 12 -20 8 0 14 6 13 13 -2 6 2
12 7 12 7 0 7 8 -1 23 -9 18 -9 20 2 10 14 -14 30 -17 27 -5 -1 4 2 19 6 34 5
16 5 36 1 45 -5 10 -7 23 -6 30 3 19 -16 24 -29 8 -7 -8 -19 -15 -28 -15 -8 0
-12 3 -9 6 3 4 0 16 -8 27 -11 15 -12 24 -3 34 6 7 7 13 3 13 -4 0 -2 7 5 15
10 12 9 20 -4 40 -15 23 -35 37 -21 15 9 -15 -4 -12 -21 4 -8 8 -11 22 -7 32
4 12 3 15 -5 10 -16 -10 -15 -42 2 -58 12 -11 12 -16 -2 -31 -12 -13 -13 -20
-5 -25 7 -4 10 -16 8 -27 -2 -11 -4 -23 -4 -27 -1 -5 -9 -8 -18 -8 -13 0 -14
3 -5 12 18 18 14 46 -8 53 -24 8 -26 21 -4 33 11 6 13 11 5 16 -6 4 -11 2 -11
-3 0 -6 -4 -11 -10 -11 -5 0 -9 3 -9 8 3 19 -2 33 -11 27 -5 -3 -10 3 -10 15
0 12 5 18 10 15 15 -9 13 -1 -19 64 -16 33 -26 63 -22 67 3 4 1 4 -6 1 -20
-12 -98 99 -87 126 3 8 -1 21 -8 28 -21 21 -48 100 -48 138 0 34 1 34 -45 15
-6 -2 -21 16 -34 40 -20 36 -22 47 -12 59 6 9 9 26 6 39 -4 14 1 61 9 106 9
45 13 88 10 96 -3 9 6 40 20 70 14 30 26 60 26 65 0 6 3 10 8 10 19 -3 25 2
12 11 -12 8 -10 10 8 10 31 0 51 21 58 62 4 18 16 43 27 55 18 20 18 23 3 29
-9 3 -28 4 -41 2 -14 -3 -25 -1 -25 4 0 5 -8 8 -17 6 -17 -3 -72 37 -63 45 3
3 33 0 67 -6 71 -12 103 -2 122 39 7 16 19 24 35 24 15 0 27 7 31 19 9 28 38
58 53 54 6 -3 12 3 12 12 0 13 -6 16 -25 13 -16 -4 -25 -1 -25 8 0 16 -28 25
-60 19 -23 -4 -27 2 -58 86 -26 71 -32 99 -27 137 4 36 2 43 -6 32 -9 -13 -10
-12 -5 3 3 10 6 28 6 40 0 18 2 19 10 7 8 -12 10 -12 16 3 10 26 -11 44 -31
27 -12 -10 -15 -10 -15 2 0 8 3 18 8 22 4 4 7 18 7 31 1 24 -19 24 -29 -1 -3
-8 -13 -14 -23 -14 -15 0 -16 2 -3 10 11 7 12 10 2 10 -10 0 -12 9 -7 31 5 22
4 29 -4 25 -6 -4 -11 -2 -11 3 0 6 -7 11 -15 11 -10 0 -15 10 -15 30 0 36 6
37 32 8 l20 -23 -6 31 c-6 28 -5 31 16 29 14 -1 24 -9 26 -21 2 -10 15 -27 28
-38 l26 -18 -18 33 c-12 22 -17 50 -15 80 3 45 -10 71 -24 48 -12 -18 -37 27
-27 48 5 10 17 35 26 56 8 20 20 37 26 37 5 0 16 12 24 28 l15 27 1 -36 c0
-21 9 -47 20 -62 11 -14 20 -37 20 -51 0 -31 55 -96 81 -96 21 0 23 -11 10
-58 -8 -28 -7 -32 7 -30 23 4 43 33 36 52 -3 9 -2 16 4 16 11 0 23 -30 28 -75
6 -41 14 -46 57 -34 33 9 52 29 27 29 -5 0 -10 8 -10 17 0 13 3 14 11 6 6 -6
18 -9 25 -6 8 3 14 0 14 -6 0 -6 -4 -11 -10 -11 -5 0 -10 -4 -10 -10 0 -16 73
-12 98 5 17 13 22 26 22 63 0 26 2 84 3 129 2 76 0 84 -29 125 -22 32 -36 42
-52 40 -12 -2 -22 2 -22 7 0 6 10 11 23 12 l22 0 -24 10 -23 9 23 19 c28 22
20 56 -11 46 -17 -5 -24 1 -37 32 -9 21 -16 42 -15 46 1 4 -11 15 -28 25 -17
9 -33 28 -37 41 -8 31 -27 50 -88 85 -54 32 -104 67 -148 106 -23 19 -40 25
-78 25 -27 0 -49 -3 -49 -7 0 -5 -9 -8 -20 -8 -14 0 -20 -7 -21 -22 0 -22 -1
-22 -11 -3 -14 28 -65 67 -72 56 -4 -5 0 -16 8 -24 8 -8 21 -29 30 -48 20 -46
37 -65 64 -73 12 -4 20 -11 18 -14 -2 -4 17 -7 42 -7 37 0 51 -5 65 -22 10
-12 27 -25 38 -28 14 -5 18 -12 14 -25 -3 -10 1 -24 9 -32 9 -10 11 -20 5 -31
-7 -11 -5 -24 7 -42 10 -15 12 -25 5 -25 -6 0 -11 -13 -11 -29 0 -31 -22 -57
-40 -46 -5 3 -10 12 -10 20 0 29 -72 28 -95 -2 -8 -10 -30 -11 -52 -4 -1 1 2
12 7 26 5 14 6 25 1 25 -4 0 -7 10 -7 23 1 13 -5 22 -14 22 -8 0 -21 6 -28 13
-7 6 -22 12 -33 12 -14 0 -19 7 -19 26 0 48 -23 118 -66 199 -85 158 -95 290
-40 524 19 80 39 198 45 261 35 354 127 571 370 870 111 137 309 334 391 389
36 24 67 47 70 51 8 11 188 114 280 160 125 62 312 133 445 169 153 40 564
103 772 117 84 6 91 5 96 -12 4 -17 5 -17 6 -1 1 15 13 17 112 17 142 0 383
-18 479 -35 41 -8 98 -16 126 -19 195 -18 619 -179 798 -303 100 -69 260 -208
345 -299 35 -38 93 -99 129 -136 145 -151 277 -375 391 -663 33 -82 82 -204
109 -271 100 -240 126 -373 125 -624 0 -96 -6 -211 -12 -255 -27 -183 -98
-406 -167 -523 -15 -26 -28 -49 -28 -52 0 -3 -8 -14 -19 -25 -10 -11 -26 -32
-35 -47 -9 -16 -20 -28 -25 -28 -22 0 -227 -178 -364 -317 -104 -106 -114
-112 -298 -196 -55 -25 -155 -71 -223 -101 -67 -31 -129 -56 -138 -56 -8 0
-45 -14 -82 -32 -68 -33 -193 -54 -178 -29 4 7 2 9 -8 5 -9 -3 -23 6 -37 25
-24 32 -41 36 -110 25 -34 -6 -37 -10 -43 -47 -8 -45 -44 -117 -60 -117 -22 0
40 -50 69 -56 40 -7 142 11 202 37 57 24 73 19 109 -32 l27 -40 -17 -55 c-16
-52 -21 -57 -69 -80 -71 -33 -108 -30 -212 16 -94 42 -159 51 -202 27 -12 -7
-35 -31 -52 -54 l-30 -42 31 -26 c17 -14 52 -37 78 -50 26 -13 54 -30 61 -37
44 -43 184 -58 240 -27 13 7 26 14 29 14 3 0 19 9 37 18 18 9 42 17 55 17 21
0 21 -2 -9 -21 -42 -27 -51 -65 -21 -91 l23 -20 -29 4 c-17 2 -31 -2 -33 -9
-3 -7 0 -13 7 -13 6 0 8 5 5 10 -3 6 -1 10 4 10 6 0 11 -8 11 -18 0 -15 7 -18
30 -17 36 2 48 -10 23 -24 -16 -8 -14 -10 10 -16 15 -4 24 -11 21 -16 -3 -5 2
-9 10 -9 9 0 16 -4 16 -10 0 -5 6 -9 13 -7 6 1 11 -4 9 -11 -1 -7 7 -27 19
-44 l22 -30 -22 13 c-11 8 -21 19 -21 26 0 19 -14 16 -28 -7 -10 -17 -10 -21
2 -26 8 -3 19 -3 24 0 6 3 15 -1 22 -9 7 -8 19 -15 28 -15 8 0 13 -2 10 -5 -3
-3 -37 2 -76 11 -70 16 -71 16 -129 -9 -32 -14 -76 -28 -97 -31 -38 -5 -63
-24 -48 -37 4 -3 23 -12 42 -19 60 -22 120 -53 120 -62 0 -4 -3 -7 -7 -7 -35
6 -42 -10 -17 -35 9 -9 11 -16 4 -16 -17 0 -1 -90 22 -123 22 -31 17 -47 -8
-26 -9 7 -33 12 -57 10 -79 -6 -97 -13 -97 -39 0 -9 -5 -24 -10 -32 -8 -12
-13 -13 -30 -2 -31 19 -24 2 14 -33 30 -27 36 -29 54 -17 18 12 29 11 74 -2
29 -8 62 -22 73 -30 17 -12 18 -17 6 -39 -12 -22 -12 -28 3 -42 9 -9 16 -25
16 -36 0 -11 7 -19 16 -19 11 0 15 -6 11 -20 -3 -13 0 -20 9 -20 8 0 14 -7 14
-15 0 -17 42 -14 65 5 8 7 21 7 36 1 l24 -9 -30 -12 -30 -12 30 -13 c17 -7 34
-10 40 -7 5 3 4 7 -4 10 -8 3 -7 8 6 18 26 19 35 17 28 -7 -6 -18 -5 -19 13
-10 12 6 24 16 27 21 14 23 59 2 50 -23 -4 -8 -20 -20 -37 -26 -25 -9 -28 -14
-19 -25 9 -10 8 -15 -3 -19 -7 -3 -18 -1 -23 4 -18 18 -157 50 -240 56 -46 3
-83 10 -83 15 0 5 -4 6 -10 3 -5 -3 -10 -20 -10 -36 0 -16 -6 -45 -14 -63 -8
-18 -10 -39 -6 -46 10 -16 50 -3 50 16 0 11 5 12 18 6 9 -5 33 -8 52 -7 38 3
90 -16 110 -39 7 -9 20 -16 29 -16 9 0 28 -6 43 -14 62 -33 98 -35 506 -37
227 -1 415 1 418 4 3 3 2 12 -2 19 -5 7 -7 22 -6 33 2 14 0 16 -6 7 -22 -32
-109 223 -147 433 -22 122 -31 423 -16 564 26 246 81 508 157 742 52 161 131
332 148 322 5 -3 6 -1 2 5 -8 13 30 95 109 232 138 241 208 464 259 823 32
224 30 342 -10 582 -20 118 -115 445 -145 498 -5 10 -8 26 -5 35 6 19 -6 45
-20 42 -5 -1 -10 4 -13 11 -2 6 1 9 7 5 6 -4 8 2 5 15 -4 13 -8 17 -13 9 -7
-11 -70 118 -70 144 0 8 -3 16 -7 18 -15 6 -55 106 -48 117 3 7 1 10 -6 9 -7
-2 -16 8 -20 22 -4 14 -7 21 -8 15 -1 -5 -7 1 -15 15 -7 14 -25 46 -39 71 -14
26 -24 49 -22 53 3 3 2 4 -2 1 -7 -6 -53 58 -53 74 0 6 -4 11 -10 11 -5 0 -10
7 -10 15 0 8 -4 15 -9 15 -5 0 -28 26 -52 58 -24 31 -51 62 -59 69 -8 7 -12
13 -8 13 4 0 -23 32 -60 71 -37 40 -66 76 -64 81 1 5 -1 7 -6 4 -5 -3 -29 15
-53 40 -24 25 -70 66 -102 91 -32 25 -54 49 -51 55 4 7 2 8 -5 4 -15 -10 -84
42 -75 56 4 7 2 8 -5 4 -6 -4 -36 8 -67 29 -73 49 -296 153 -406 190 -48 16
-85 32 -82 36 2 4 -6 5 -18 1 -16 -4 -19 -2 -13 8 5 9 4 11 -3 6 -7 -4 -78 11
-160 33 -279 76 -458 101 -737 106 -110 1 -222 1 -250 -1z m-1885 -2904 c-6
-11 -18 -20 -27 -20 -14 0 -14 2 2 20 10 11 22 20 27 20 5 0 4 -9 -2 -20z
m-95 -70 c3 -5 1 -10 -4 -10 -6 0 -11 5 -11 10 0 6 2 10 4 10 3 0 8 -4 11 -10z
m105 -30 c0 -5 -7 -10 -15 -10 -8 0 -15 5 -15 10 0 6 7 10 15 10 8 0 15 -4 15
-10z m120 -20 c0 -5 -5 -10 -11 -10 -5 0 -7 5 -4 10 3 6 8 10 11 10 2 0 4 -4
4 -10z m-65 -11 c11 -16 -4 -59 -20 -59 -19 0 -29 38 -15 55 15 18 26 19 35 4z
m-505 -39 c0 -5 -5 -10 -11 -10 -5 0 -7 5 -4 10 3 6 8 10 11 10 2 0 4 -4 4
-10z m178 -212 c-2 -24 -8 -32 -25 -33 -22 -2 -40 22 -27 34 4 3 9 0 11 -7 7
-18 23 -4 23 19 0 10 5 19 11 19 6 0 9 -14 7 -32z m388 -10 c16 4 49 5 74 2
46 -6 43 -9 -25 -23 -13 -3 -10 -5 10 -6 38 -1 22 -17 -27 -26 -30 -6 -37 -4
-42 12 -7 22 -73 46 -80 29 -2 -6 -7 -3 -11 7 -4 9 -4 24 -1 33 5 13 11 11 39
-10 27 -20 39 -24 63 -18z m1508 -463 c3 -9 0 -15 -9 -15 -8 0 -15 7 -15 15 0
8 4 15 9 15 5 0 11 -7 15 -15z m-116 -55 c-1 -38 11 -52 19 -22 8 31 32 28 28
-3 -3 -36 -9 -38 -52 -24 -51 17 -64 30 -57 57 5 16 14 22 34 22 25 0 29 -4
28 -30z m82 -250 c0 -5 -5 -10 -11 -10 -5 0 -7 5 -4 10 3 6 8 10 11 10 2 0 4
-4 4 -10z m0 -50 c0 -5 -5 -10 -11 -10 -5 0 -7 5 -4 10 3 6 8 10 11 10 2 0 4
-4 4 -10z m474 -221 c-3 -6 -1 -15 6 -19 8 -5 7 -9 -4 -13 -11 -4 -16 -1 -16
12 0 10 3 21 7 24 10 11 15 8 7 -4z m-349 -209 c-3 -5 -12 -10 -18 -10 -7 0
-6 4 3 10 19 12 23 12 15 0z m422 -42 c-3 -8 -6 -5 -6 6 -1 11 2 17 5 13 3 -3
4 -12 1 -19z m-100 -160 c-3 -8 -6 -5 -6 6 -1 11 2 17 5 13 3 -3 4 -12 1 -19z
m1200 -125 c-12 -12 -19 -13 -33 -3 -17 10 -17 11 -1 6 11 -3 20 0 23 9 4 8
11 12 16 9 6 -4 4 -12 -5 -21z m-61 -360 c-7 -7 -26 7 -26 19 0 6 6 6 15 -2 9
-7 13 -15 11 -17z m33 -29 c4 3 8 -1 8 -9 0 -11 -4 -12 -14 -4 -7 6 -13 17
-12 23 0 7 2 6 6 -2 2 -6 8 -10 12 -8z m-3171 -23 c3 -8 -1 -12 -9 -9 -7 2
-15 10 -17 17 -3 8 1 12 9 9 7 -2 15 -10 17 -17z m3182 -47 c0 -3 -6 -1 -13 5
-8 6 -17 8 -20 4 -4 -3 -7 -1 -7 5 0 5 -3 19 -6 29 -5 13 1 10 20 -9 14 -15
26 -30 26 -34z m-3300 36 c0 -5 -2 -10 -4 -10 -3 0 -8 5 -11 10 -3 6 -1 10 4
10 6 0 11 -4 11 -10z m1495 -80 c-3 -5 -24 -14 -46 -20 -22 -6 -43 -18 -46
-26 -3 -7 -9 -14 -14 -14 -15 0 13 48 35 58 27 14 79 15 71 2z m-1369 -90 c-1
-9 -9 -24 -18 -34 -10 -10 -18 -24 -18 -31 0 -8 -8 -19 -18 -24 -14 -8 -18 -5
-19 12 -1 11 5 26 14 32 11 9 13 14 5 19 -7 4 -12 2 -12 -5 0 -8 -5 -7 -17 2
-11 10 -14 10 -9 2 4 -8 2 -13 -4 -13 -20 0 -5 23 26 41 36 21 71 21 70 -1z
m1226 -115 c4 -5 4 -13 2 -17 -9 -14 -23 -9 -34 13 -10 17 -9 20 7 17 10 -2
21 -7 25 -13z"/>
<path d="M3240 4186 c0 -9 30 -14 35 -6 4 6 -3 10 -14 10 -12 0 -21 -2 -21 -4z"/>
<path d="M5192 9410 c-18 -4 -36 -10 -39 -14 -10 -10 74 -7 102 4 19 7 24 7
19 -1 -4 -7 -1 -10 7 -7 8 3 24 1 37 -3 15 -6 22 -5 22 4 0 8 3 8 9 -2 5 -8
16 -11 25 -8 9 4 16 1 16 -5 0 -7 6 -6 16 3 13 10 17 10 24 0 9 -16 46 -6 54
15 5 12 2 13 -16 3 -17 -9 -24 -9 -32 3 -8 11 -35 15 -111 16 -55 0 -115 -3
-133 -8z"/>
<path d="M5502 9405 c4 -5 3 -14 -3 -21 -14 -17 -3 -34 19 -33 15 1 15 2 0 6
-10 2 -18 9 -18 15 0 5 7 8 15 4 9 -3 15 0 15 10 0 10 7 14 18 12 9 -2 16 -10
15 -16 -2 -7 2 -12 7 -12 6 0 10 5 10 10 0 6 10 10 22 10 12 0 19 3 15 6 -9 9
-123 18 -115 9z"/>
<path d="M5048 9373 c7 -3 16 -2 19 1 4 3 -2 6 -13 5 -11 0 -14 -3 -6 -6z"/>
<path d="M5658 9373 c7 -3 16 -2 19 1 4 3 -2 6 -13 5 -11 0 -14 -3 -6 -6z"/>
<path d="M5120 9360 c-25 -5 -65 -13 -90 -18 l-45 -8 55 -18 c102 -34 129 -54
191 -140 18 -25 35 -46 38 -45 10 0 66 123 63 139 -2 11 0 12 5 3 7 -9 18 -9
48 2 22 8 62 14 88 15 30 0 46 4 42 10 -4 6 -11 8 -16 5 -5 -4 -12 1 -15 9 -6
15 -53 35 -102 42 -70 10 -222 12 -262 4z m187 -105 c0 -8 -4 -12 -9 -9 -5 3
-6 10 -3 15 9 13 12 11 12 -6z m-37 -5 c0 -5 -5 -10 -11 -10 -5 0 -7 5 -4 10
3 6 8 10 11 10 2 0 4 -4 4 -10z m-30 -30 c0 -5 -4 -10 -10 -10 -5 0 -10 5 -10
10 0 6 5 10 10 10 6 0 10 -4 10 -10z"/>
<path d="M4628 9313 c7 -3 16 -2 19 1 4 3 -2 6 -13 5 -11 0 -14 -3 -6 -6z"/>
<path d="M4887 9203 c-20 -3 -27 -9 -23 -19 3 -8 2 -13 -3 -10 -12 8 -61 -32
-61 -50 0 -11 9 -10 43 7 44 22 87 57 87 71 0 4 -3 7 -7 7 -5 -1 -21 -4 -36
-6z"/>
<path d="M3445 9170 c-3 -6 1 -7 9 -4 18 7 21 14 7 14 -6 0 -13 -4 -16 -10z"/>
<path d="M6099 9127 c6 -8 8 -16 5 -20 -3 -3 14 -5 38 -5 24 1 54 -2 68 -7 20
-6 23 -5 13 5 -6 7 -35 15 -62 18 -28 2 -51 8 -51 13 0 5 -5 9 -11 9 -8 0 -9
-4 0 -13z"/>
<path d="M4035 9113 c-83 -21 -124 -40 -132 -60 -9 -24 -35 -43 -51 -38 -7 3
-10 0 -7 -5 3 -6 -2 -10 -13 -10 -10 0 -36 -16 -58 -35 -36 -31 -37 -34 -16
-35 15 0 21 4 16 12 -5 8 -2 9 9 5 9 -3 19 -2 23 4 3 6 39 35 79 64 56 42 92
60 152 76 133 36 131 54 -2 22z"/>
<path d="M4606 9123 c-18 -18 -123 -42 -163 -36 -23 3 -40 9 -38 13 3 5 -4 6
-15 3 -11 -3 -23 -10 -27 -16 -4 -6 2 -8 14 -5 12 3 27 2 34 -3 9 -6 -5 -9
-37 -9 -37 0 -54 -4 -58 -15 -3 -8 -13 -15 -22 -15 -10 0 -14 -3 -11 -7 8 -7
-23 -32 -41 -33 -10 0 -13 11 -10 37 2 30 -1 38 -15 41 -9 2 -17 -1 -17 -7 0
-17 -118 -90 -156 -97 -19 -3 -37 -10 -40 -15 -3 -5 -17 -9 -31 -9 -25 0 -76
-24 -101 -47 -7 -7 -18 -13 -24 -13 -18 0 -137 -132 -131 -146 3 -8 0 -14 -6
-14 -11 0 -15 13 -12 37 3 20 -69 -11 -109 -47 -9 -8 -25 -20 -35 -26 -17 -10
-17 -11 4 -31 13 -12 20 -26 17 -31 -3 -6 -3 -18 0 -27 6 -13 9 -14 16 -3 8
10 9 10 5 -2 -2 -8 -8 -15 -13 -15 -22 0 -67 -48 -120 -126 -35 -53 -68 -90
-89 -101 -36 -19 -54 -48 -29 -48 8 0 12 -5 9 -11 -4 -6 0 -9 11 -7 11 2 18
-2 17 -9 -2 -7 4 -13 13 -13 8 0 13 -4 10 -9 -3 -5 12 -11 33 -15 22 -3 41
-12 44 -18 2 -7 10 12 17 42 14 59 97 257 111 266 12 7 11 24 -1 24 -5 0 -10
-6 -10 -14 0 -8 -9 -24 -20 -37 -17 -21 -17 -18 4 26 13 28 26 57 30 65 3 8 4
5 2 -7 -6 -33 3 -29 58 27 42 43 128 90 166 90 4 0 23 18 40 40 80 101 254
169 435 170 39 1 126 7 194 14 77 8 138 10 162 5 63 -14 85 -9 87 22 1 15 9
45 16 67 13 37 13 40 -4 45 -10 3 -23 0 -29 -6 -7 -7 -20 1 -42 26 -31 35 -74
49 -93 30z"/>
<path d="M3748 9103 c-10 -2 -18 -9 -18 -14 0 -6 8 -5 20 1 11 6 20 13 20 15
0 3 -1 4 -2 4 -2 -1 -11 -3 -20 -6z"/>
<path d="M5340 9091 c0 -18 18 -21 30 -6 10 13 9 15 -9 15 -11 0 -21 -4 -21
-9z"/>
<path d="M5405 9073 c-15 -16 -38 -45 -52 -66 -24 -34 -27 -36 -39 -20 -13 16
-14 14 -13 -17 1 -19 -6 -52 -15 -72 -9 -21 -16 -40 -16 -44 0 -9 44 57 52 77
9 23 145 139 163 139 18 0 20 16 3 26 -7 4 -8 3 -4 -4 4 -7 3 -12 -3 -12 -5 0
-13 5 -16 10 -11 17 -33 11 -60 -17z"/>
<path d="M3683 9065 c0 -7 6 -11 14 -8 7 3 13 6 13 8 0 2 -6 5 -13 8 -8 3 -14
-1 -14 -8z"/>
<path d="M6163 9073 c9 -2 23 -2 30 0 6 3 -1 5 -18 5 -16 0 -22 -2 -12 -5z"/>
<path d="M6248 9063 c7 -3 16 -2 19 1 4 3 -2 6 -13 5 -11 0 -14 -3 -6 -6z"/>
<path d="M3820 9040 c-9 -6 -10 -10 -3 -10 6 0 15 5 18 10 8 12 4 12 -15 0z"/>
<path d="M3780 9020 c-8 -5 -12 -11 -9 -14 2 -3 11 -1 19 4 8 5 12 11 9 14 -2
3 -11 1 -19 -4z"/>
<path d="M3585 9010 c-3 -6 1 -7 9 -4 18 7 21 14 7 14 -6 0 -13 -4 -16 -10z"/>
<path d="M3733 8979 c-6 -6 -17 -11 -24 -13 -22 -3 -69 -37 -64 -46 3 -4 -12
-15 -33 -24 -42 -17 -93 -55 -75 -56 24 0 159 80 193 115 18 19 29 35 24 35
-6 0 -15 -5 -21 -11z m-33 -29 c0 -5 -5 -10 -11 -10 -5 0 -7 5 -4 10 3 6 8 10
11 10 2 0 4 -4 4 -10z"/>
<path d="M5110 8974 c0 -6 98 -104 104 -104 3 0 6 7 6 15 0 8 -5 15 -11 15 -6
0 -9 6 -6 13 2 6 -2 18 -9 25 -9 9 -14 9 -14 2 0 -7 -6 -10 -12 -7 -7 2 -12
12 -10 23 2 14 -4 19 -23 20 -14 1 -25 0 -25 -2z"/>
<path d="M5598 8927 c-7 -8 -18 -12 -25 -10 -6 2 -14 -1 -18 -6 -3 -6 -2 -11
4 -11 5 0 29 -13 53 -28 24 -16 53 -28 66 -28 22 0 22 1 6 13 -10 7 -12 13 -6
13 18 0 14 22 -7 48 -21 25 -53 29 -73 9z"/>
<path d="M5868 8924 c-24 -10 -38 -23 -38 -34 0 -10 -6 -21 -12 -23 -10 -4
-10 -7 0 -15 7 -5 10 -16 6 -27 -6 -15 -4 -17 17 -12 13 4 56 15 94 24 67 17
68 18 35 24 l-35 5 30 9 c16 5 43 8 60 8 29 0 55 12 55 27 0 4 -24 10 -52 14
-29 4 -69 9 -88 11 -20 3 -51 -2 -72 -11z"/>
<path d="M4974 8882 c-12 -9 -34 -26 -50 -37 -38 -28 -58 -50 -80 -90 -10 -19
-22 -35 -26 -35 -19 0 -60 -93 -64 -147 -2 -32 -7 -71 -10 -88 -3 -16 -5 -38
-4 -47 2 -39 1 -85 -5 -123 -6 -42 4 -60 40 -81 14 -8 20 -22 21 -46 0 -20 6
-50 14 -68 10 -25 11 -34 1 -39 -9 -6 -5 -13 13 -25 21 -13 26 -24 26 -61 0
-24 -5 -47 -11 -51 -6 -3 -8 -17 -5 -30 4 -15 2 -24 -5 -24 -6 0 -8 -7 -5 -16
6 -15 -59 -144 -72 -144 -10 1 -48 87 -67 155 -10 33 -25 69 -35 80 -9 11 -22
39 -28 61 -7 23 -19 47 -27 54 -8 7 -15 18 -15 25 0 7 -7 18 -15 25 -8 7 -14
20 -13 29 4 21 -137 69 -208 70 -56 1 -117 -16 -108 -30 3 -5 -2 -9 -10 -9 -8
0 -20 -9 -26 -19 -5 -11 -17 -27 -26 -35 -8 -9 -17 -30 -19 -47 -3 -17 -9 -37
-15 -44 -6 -8 -12 -27 -12 -44 -1 -17 -9 -39 -18 -49 -9 -10 -20 -30 -24 -45
-5 -20 -13 -27 -31 -27 -13 0 -27 -5 -30 -10 -3 -6 -17 -7 -31 -4 -14 4 -24 2
-24 -5 0 -6 -7 -11 -15 -11 -9 0 -27 -7 -41 -16 -33 -22 -151 -30 -134 -9 6 8
43 26 82 41 96 36 129 68 166 159 40 98 106 181 191 237 14 10 22 18 16 18 -5
0 4 9 20 20 17 11 24 20 16 20 -11 0 -11 3 0 16 9 11 9 18 2 22 -18 11 -20
180 -3 225 8 21 19 36 26 33 7 -3 15 -2 18 1 10 11 -65 53 -95 53 -27 0 -29 2
-15 15 8 8 21 15 29 15 8 0 17 7 21 15 3 8 1 15 -4 15 -6 0 -10 5 -10 11 0 7
12 8 33 4 l32 -6 -27 16 c-34 19 -36 29 -5 19 27 -9 327 -183 345 -201 7 -7
18 -13 23 -13 12 0 2 -74 -11 -78 -5 -2 -10 -14 -10 -28 0 -17 -4 -22 -15 -18
-8 4 -15 16 -15 28 0 17 -2 18 -10 6 -6 -9 -10 -10 -10 -3 0 6 5 15 11 19 7 4
-8 16 -36 29 -33 16 -42 24 -29 27 34 6 -56 52 -106 54 -25 1 -49 2 -55 4 -20
5 -55 0 -55 -8 0 -13 34 -11 42 2 5 7 8 5 8 -5 0 -9 -7 -22 -15 -29 -8 -7 -15
-21 -15 -31 0 -12 5 -16 15 -13 24 10 17 -13 -11 -35 -20 -16 -23 -24 -16 -38
6 -11 7 -36 2 -63 -13 -67 -13 -69 28 -75 87 -14 229 -37 249 -41 24 -4 67
-68 84 -126 6 -18 14 -66 19 -107 10 -83 30 -120 30 -56 0 61 -53 248 -78 278
-14 15 -13 26 1 95 9 43 17 98 17 123 0 31 9 62 29 100 57 105 91 179 91 198
0 10 14 33 32 50 36 35 25 43 -12 9 -23 -22 -75 -34 -63 -15 3 5 15 6 27 3 19
-5 19 -3 -4 14 -14 11 -30 18 -37 15 -7 -2 -15 0 -18 5 -8 14 -68 7 -81 -9 -9
-11 -13 -10 -27 4 -11 10 -25 14 -37 10 -20 -6 -29 9 -10 18 6 3 5 4 -2 3 -15
-3 -20 -54 -7 -62 5 -3 9 2 9 10 0 9 5 16 10 16 15 0 12 -15 -8 -33 -11 -10
-22 -13 -32 -7 -21 13 -32 2 -19 -21 6 -12 8 -23 5 -27 -3 -3 -6 0 -6 8 0 10
-3 10 -15 0 -12 -10 -18 -10 -30 0 -8 7 -24 10 -36 7 -24 -6 -49 1 -49 14 0 5
6 9 14 9 8 0 21 9 29 21 12 16 22 19 53 15 30 -4 33 -4 14 3 l-25 9 28 1 c15
1 27 5 27 9 0 18 -13 20 -36 5 -15 -9 -33 -13 -50 -9 -14 4 -23 3 -21 -1 7
-12 -87 -10 -95 2 -5 6 -8 5 -8 -2 0 -9 -22 -13 -74 -13 -41 0 -78 -4 -81 -10
-3 -5 -18 -10 -33 -10 -15 0 -38 -12 -54 -27 -26 -25 -47 -33 -89 -34 -22 -1
-19 -30 5 -48 14 -11 15 -15 5 -22 -11 -7 -11 -9 -1 -9 8 0 10 -5 6 -12 -6
-10 -5 -10 8 -1 8 7 17 10 20 7 3 -3 16 9 28 25 21 31 40 40 40 21 0 -5 -7
-10 -16 -10 -8 0 -13 -4 -9 -9 3 -5 -1 -16 -9 -24 -8 -8 -13 -17 -11 -19 5 -5
-74 -51 -92 -54 -7 -1 -13 2 -13 7 0 16 -100 11 -106 -6 -4 -8 -10 -13 -14
-10 -4 2 -25 -4 -46 -14 -21 -11 -42 -17 -46 -14 -5 2 -8 -1 -8 -8 0 -7 8 -9
21 -6 25 7 51 -2 44 -14 -3 -4 -12 -6 -19 -3 -8 3 -17 1 -21 -5 -3 -6 -17 -11
-31 -11 -24 0 -35 -19 -11 -21 6 0 2 -4 -10 -9 -26 -10 -29 -29 -10 -49 10
-11 9 -13 -5 -8 -19 7 -82 -39 -73 -53 3 -5 0 -12 -6 -16 -8 -5 -9 -3 -4 7 7
12 6 12 -7 1 -9 -7 -17 -21 -16 -30 0 -9 -6 -48 -13 -86 -10 -53 -10 -73 0
-87 8 -15 9 -25 0 -40 -8 -16 -7 -25 6 -39 9 -10 14 -24 9 -31 -4 -7 -8 -28
-10 -47 -1 -19 -12 -43 -24 -55 l-22 -20 7 23 c6 19 4 21 -13 16 -13 -4 -22
-1 -26 9 -3 8 -1 15 4 15 6 0 10 4 10 10 0 5 -7 6 -17 3 -10 -4 -14 -2 -10 4
4 6 0 14 -9 17 -10 4 -13 2 -8 -7 5 -9 4 -9 -6 0 -10 9 -10 15 -2 26 7 8 8 17
4 22 -4 4 3 3 14 -3 19 -10 21 -9 19 11 -4 32 -4 33 -15 17 -8 -13 -10 -12
-10 3 0 12 -8 17 -28 17 -26 0 -27 -2 -24 -40 4 -34 1 -40 -14 -40 -16 0 -17
2 -4 10 12 8 10 10 -9 10 -13 0 -38 -15 -58 -35 -19 -19 -39 -35 -44 -35 -5 0
-9 -9 -9 -20 0 -11 -5 -20 -11 -20 -8 0 -9 -13 -5 -40 4 -28 3 -42 -6 -45 -7
-3 -14 -21 -15 -40 -2 -26 2 -38 17 -47 43 -27 5 -63 -57 -56 -30 4 -36 1 -44
-20 -5 -14 -9 -41 -8 -61 1 -20 -2 -63 -5 -96 -7 -58 -6 -61 23 -93 22 -24 31
-43 31 -67 0 -25 8 -41 31 -62 17 -15 41 -39 55 -52 22 -22 24 -22 24 -5 0 17
3 16 20 -6 l20 -25 0 25 c0 14 -6 35 -13 46 -52 90 -57 105 -57 168 0 70 25
153 56 188 16 17 16 18 1 12 -12 -4 -17 -1 -17 10 0 9 5 16 10 16 18 0 10 18
-10 23 -11 3 -20 11 -20 19 0 10 2 10 10 -2 8 -12 10 -12 16 4 6 17 8 17 19
-5 7 -13 10 -30 7 -38 -3 -9 -1 -12 4 -8 4 4 9 36 10 70 3 79 6 97 15 91 4 -2
10 4 13 14 6 19 30 23 84 16 19 -3 30 -9 26 -15 -3 -6 -15 -9 -25 -6 -11 3
-19 1 -19 -4 0 -5 7 -9 16 -9 12 0 15 -6 10 -24 -3 -13 -2 -45 3 -72 11 -57 5
-80 -15 -63 -11 9 -14 7 -14 -13 0 -18 -6 -24 -27 -26 -14 -1 -27 -3 -27 -5
-8 -23 -58 -101 -64 -100 -5 1 -10 -22 -11 -50 -2 -45 2 -56 24 -77 14 -13 25
-29 25 -35 0 -10 47 -58 60 -61 3 0 12 -3 20 -6 32 -13 80 -17 85 -8 10 15 45
12 45 -4 0 -8 -9 -18 -20 -21 -11 -3 -20 -11 -20 -16 0 -6 4 -8 9 -4 5 3 11
-5 13 -17 2 -15 15 12 36 75 30 92 32 101 22 164 -6 36 -15 74 -20 84 -6 10
-10 27 -10 38 0 21 0 21 19 2 11 -11 24 -36 29 -55 6 -20 19 -48 30 -63 22
-32 40 -99 24 -89 -6 4 -8 -2 -4 -16 3 -13 1 -19 -5 -15 -14 9 -43 -62 -39
-98 6 -68 16 -83 77 -114 32 -17 65 -31 74 -31 8 0 15 -3 15 -8 0 -4 21 -6 46
-3 25 2 51 -2 57 -8 14 -14 121 -15 112 -1 -4 7 3 8 20 4 18 -4 25 -3 23 6 -2
8 10 16 28 20 17 4 45 14 62 23 18 8 32 11 32 6 0 -6 5 -7 10 -4 8 5 7 12 -2
22 -30 37 -14 93 29 93 14 0 11 8 -17 33 -19 18 -57 59 -84 91 -27 31 -79 82
-117 113 -70 56 -78 73 -32 73 15 0 24 -3 20 -6 -11 -12 24 -36 55 -39 22 -2
34 -9 39 -23 5 -12 19 -24 32 -27 13 -4 36 -19 51 -36 15 -16 36 -29 47 -29
10 0 19 -4 19 -10 0 -5 14 -17 31 -25 35 -19 114 -11 123 11 3 8 13 14 21 14
9 0 13 5 10 10 -3 6 0 10 7 10 7 0 19 9 26 20 7 11 21 20 32 20 17 0 20 7 20
43 0 52 -33 237 -61 337 -11 41 -38 111 -60 155 -44 89 -40 119 11 66 16 -18
28 -36 25 -40 -2 -4 2 -19 10 -34 7 -14 10 -28 7 -32 -4 -3 -2 -9 3 -13 16
-11 45 -81 45 -107 0 -13 5 -27 10 -30 6 -3 10 -13 10 -20 0 -20 57 -142 70
-150 6 -4 8 -15 5 -26 -4 -13 -2 -19 9 -19 9 0 16 -5 16 -10 0 -7 18 -8 50 -4
l50 7 0 -30 c0 -43 15 -51 95 -48 39 1 75 -2 81 -6 6 -5 11 -3 11 6 0 8 -4 12
-9 9 -4 -3 -8 -1 -8 5 0 13 33 23 54 15 10 -4 18 0 22 10 3 9 12 16 20 16 7 0
23 14 36 30 12 17 28 30 36 30 12 0 13 10 9 48 -5 41 -4 44 6 22 18 -38 32
-51 44 -39 7 7 7 19 -2 37 -22 45 -27 72 -15 72 6 0 8 -4 5 -10 -3 -5 3 -10
14 -10 12 0 21 -4 21 -9 0 -5 9 -13 20 -16 11 -3 20 -13 20 -21 0 -23 34 -21
90 4 43 19 44 19 75 21 13 0 30 8 37 16 7 9 28 31 46 49 17 19 32 37 32 41 0
9 27 35 37 35 4 0 14 -9 21 -20 7 -11 22 -20 35 -20 12 0 34 -11 48 -23 23
-22 29 -23 93 -16 74 9 134 27 154 47 7 6 23 12 35 12 12 0 30 6 39 14 18 13
78 10 78 -5 0 -4 -16 -21 -35 -36 -19 -15 -35 -32 -35 -36 0 -5 21 -7 47 -4
66 5 93 -10 94 -53 0 -19 2 -42 4 -50 2 -8 8 -34 13 -58 6 -27 6 -44 0 -48 -5
-3 -7 -12 -4 -20 3 -8 1 -14 -4 -14 -5 0 -11 -8 -14 -18 -8 -24 -58 -52 -85
-47 -12 2 -36 11 -53 20 -32 15 -74 22 -51 7 19 -12 25 -62 7 -62 -8 0 -14 5
-14 11 0 5 -4 8 -9 5 -5 -3 -20 3 -34 14 -14 11 -35 20 -46 20 -12 0 -37 6
-56 14 -23 10 -68 14 -137 14 -91 -1 -109 -4 -153 -28 -27 -15 -72 -33 -100
-40 -52 -14 -115 -49 -115 -64 0 -5 -16 -23 -35 -42 -19 -18 -35 -36 -35 -39
0 -4 -9 -20 -21 -36 -12 -17 -19 -40 -17 -56 5 -42 -20 -39 -31 4 -13 47 -49
74 -63 48 -9 -14 -12 -15 -26 -2 -10 8 -33 18 -52 21 -19 4 -44 11 -55 16 -41
18 -210 39 -246 31 -46 -10 -149 -60 -149 -72 0 -5 -6 -9 -14 -9 -7 0 -28 -18
-47 -40 -19 -22 -40 -38 -47 -35 -20 8 -37 -6 -21 -16 10 -6 6 -9 -13 -9 -24
0 -27 -5 -37 -50 -6 -28 -11 -64 -11 -80 0 -30 21 -53 28 -31 3 8 8 6 18 -6
12 -17 14 -17 29 4 16 23 45 21 45 -3 0 -8 7 -17 15 -20 8 -4 12 -11 8 -17 -3
-6 -1 -7 5 -3 6 4 21 2 33 -4 14 -8 29 -8 50 -1 24 8 31 7 43 -10 18 -26 100
-27 201 -4 39 9 79 17 90 19 14 2 21 12 25 37 6 38 -2 37 115 16 68 -11 150
-14 230 -7 22 2 34 5 27 8 -22 7 -13 22 14 22 14 0 34 5 46 11 33 18 76 72 82
105 4 17 21 48 39 70 18 21 45 58 61 82 16 23 31 40 34 38 5 -6 -35 -75 -52
-91 -18 -16 -44 -69 -39 -81 2 -6 23 -9 48 -8 34 2 45 -1 45 -12 0 -17 46 -18
105 -3 22 5 65 14 95 19 83 14 89 16 96 23 4 4 15 7 23 7 9 0 22 9 29 20 7 11
19 20 27 20 8 0 15 5 15 10 0 6 5 10 10 10 6 0 4 -10 -4 -23 -9 -12 -13 -32
-10 -44 8 -30 89 -41 133 -19 17 9 32 15 34 14 2 -2 12 3 21 11 10 8 27 15 38
16 11 1 23 7 26 12 4 6 29 14 56 18 27 4 57 16 67 26 11 11 27 19 37 19 14 0
15 2 2 10 -13 8 -12 10 3 10 9 0 17 5 17 10 0 6 6 10 13 10 24 1 56 38 62 74
6 27 11 36 22 32 9 -4 13 -1 10 6 -2 7 10 25 26 41 17 15 27 27 22 27 -4 0 -1
8 7 18 8 9 18 34 21 55 5 34 4 37 -19 37 -24 0 -34 23 -14 35 10 6 50 16 80
19 48 5 78 52 83 128 3 36 14 61 25 54 4 -2 7 12 7 32 0 44 19 53 33 15 6 -15
11 -22 11 -15 1 18 21 15 21 -3 0 -9 -13 -45 -30 -81 -16 -37 -43 -112 -60
-167 -17 -56 -41 -114 -55 -131 -14 -17 -52 -65 -85 -107 -61 -79 -118 -132
-230 -214 -36 -26 -79 -62 -97 -81 -22 -25 -39 -34 -60 -33 -15 0 -60 -3 -98
-6 -60 -6 -77 -4 -110 12 -43 21 -49 21 -270 -6 -49 -6 -124 -10 -165 -8 -72
2 -77 1 -146 -41 -102 -61 -158 -73 -312 -66 -111 5 -131 3 -162 -13 -22 -11
-34 -24 -32 -35 1 -10 -6 -19 -20 -23 -13 -3 -52 -15 -88 -25 -36 -11 -94 -25
-128 -32 l-64 -13 44 -11 c67 -17 92 -33 78 -50 -7 -7 -16 -12 -20 -9 -4 3
-10 -8 -12 -25 -4 -25 0 -31 24 -39 15 -6 28 -15 28 -22 0 -7 8 -9 21 -6 15 4
18 2 10 -7 -6 -7 -8 -16 -4 -19 11 -12 73 -8 73 4 0 6 6 9 14 6 14 -6 41 20
64 61 8 14 8 22 1 22 -5 0 -7 5 -3 11 10 17 24 -10 24 -48 0 -31 2 -32 30 -26
25 4 30 2 30 -13 0 -16 2 -16 9 -4 6 8 8 17 5 21 -2 4 3 12 11 19 19 16 55 3
55 -20 0 -18 26 -35 34 -22 2 4 26 7 53 6 26 -1 59 -3 72 -3 18 -1 22 -5 18
-20 -4 -16 1 -18 38 -16 23 2 52 8 64 14 11 7 21 9 21 6 0 -3 9 -1 19 5 14 7
21 6 24 -3 3 -8 9 -6 19 7 11 13 17 16 22 7 4 -6 12 -8 18 -5 6 4 5 10 -3 16
-11 8 -10 9 4 4 32 -10 76 5 79 28 2 11 8 21 13 22 6 0 18 4 27 8 9 4 26 2 37
-4 18 -9 25 -7 49 19 l27 30 20 -29 c19 -28 23 -30 65 -24 25 4 48 8 53 11 14
8 7 21 -15 28 -20 6 -20 8 -5 12 29 8 19 20 -23 27 -24 4 -49 2 -61 -5 -11 -6
-24 -8 -27 -4 -11 10 21 25 55 25 17 0 38 3 47 6 33 13 14 20 -44 19 -33 -1
-60 0 -60 3 0 11 31 31 61 39 36 10 107 2 118 -13 11 -15 161 -21 184 -7 6 4
21 9 32 10 11 2 22 8 23 13 2 6 22 10 44 10 32 0 39 -3 34 -15 -3 -8 -1 -15 4
-15 5 0 16 -7 24 -16 14 -14 18 -14 38 2 15 11 17 14 6 11 -22 -8 -46 29 -29
46 7 7 14 7 23 0 7 -6 27 -13 44 -16 18 -3 47 -10 65 -16 19 -5 46 -13 62 -16
38 -8 34 -26 -5 -19 -31 5 -30 4 7 -10 21 -8 40 -14 40 -13 1 1 8 18 15 37 8
19 20 41 27 48 7 7 10 19 7 27 -4 10 0 15 12 16 18 0 17 1 -1 9 -18 8 -18 9
-2 9 25 1 50 28 52 55 1 11 8 21 15 21 7 0 15 11 17 24 6 43 21 53 54 35 31
-16 41 -2 12 16 -17 11 -17 11 0 6 9 -3 17 -2 17 3 0 5 11 12 25 15 14 4 24
10 23 14 -1 4 6 25 15 46 10 22 15 46 13 53 -3 7 -1 15 3 17 5 3 14 26 21 51
12 41 23 51 53 46 16 -2 6 10 -15 18 -22 8 -22 8 6 35 17 15 41 26 56 26 16 0
30 7 34 16 3 9 2 12 -5 9 -6 -4 -19 1 -30 11 -11 10 -19 12 -19 6 0 -7 -4 -12
-10 -12 -5 0 -10 11 -10 24 0 51 -91 85 -136 51 -10 -8 -26 -14 -34 -15 -9 0
-11 3 -5 8 6 4 11 18 13 32 5 50 24 105 31 90 3 -8 17 -16 31 -17 14 -1 59
-12 100 -23 100 -29 111 -29 121 -2 7 19 5 25 -11 29 -10 3 -26 16 -35 29 -8
13 -22 24 -29 24 -9 0 -16 16 -20 43 -4 23 -9 60 -12 82 -3 22 -10 44 -15 50
-5 5 -9 17 -9 27 0 10 -5 18 -11 18 -6 0 -8 11 -4 29 4 20 2 30 -9 34 -8 3
-17 3 -20 -1 -7 -6 -76 -32 -88 -32 -5 0 -8 20 -8 44 0 35 -5 48 -22 60 -12 9
-19 16 -14 16 5 0 -4 12 -20 27 -16 14 -36 47 -45 72 -12 37 -23 50 -55 65
-21 10 -40 22 -42 27 -2 5 -10 9 -18 9 -9 0 -12 5 -8 11 4 8 0 8 -15 0 -17
-10 -21 -9 -21 4 0 8 6 15 13 15 8 0 8 3 2 8 -6 4 -11 31 -10 61 0 42 -5 59
-22 78 -18 19 -27 22 -42 13 -16 -8 -21 -6 -26 11 -7 21 -25 22 -67 4 -13 -5
-18 -3 -18 9 0 11 -9 16 -30 16 -16 0 -30 4 -30 8 0 12 -46 32 -72 32 -12 0
-18 3 -15 7 4 3 24 6 44 6 33 -1 35 0 13 7 -45 14 -80 12 -74 -5 8 -19 -10
-19 -30 0 -22 23 -28 1 -6 -22 10 -12 16 -24 12 -27 -3 -4 0 -11 8 -16 12 -8
11 -10 -5 -10 -12 0 -26 5 -33 12 -10 10 -16 8 -30 -6 -16 -17 -16 -18 0 -13
14 5 16 2 9 -15 -14 -38 -29 -31 -37 17 -7 47 4 82 34 114 26 27 -27 43 -54
17 -8 -8 -11 -17 -7 -19 5 -3 8 -69 8 -146 0 -78 2 -141 5 -141 4 0 11 5 18
12 18 18 206 17 256 -1 48 -17 119 -81 151 -135 25 -43 55 -147 55 -188 0 -14
11 -35 25 -48 19 -18 22 -26 13 -32 -8 -5 -9 -11 -3 -15 6 -5 11 -18 13 -29 2
-16 -5 -24 -28 -32 -18 -7 -30 -7 -30 -1 0 5 -6 8 -12 7 -8 -2 -20 25 -31 72
-11 41 -22 77 -26 80 -4 3 -6 15 -5 27 1 12 -2 20 -6 18 -4 -3 -10 11 -13 29
-5 34 -65 135 -80 136 -4 0 -18 9 -30 20 -29 28 -124 22 -186 -11 -25 -12 -62
-24 -84 -25 -21 -1 -44 -7 -50 -13 -6 -6 -20 -11 -32 -11 -17 0 -21 7 -23 35
-2 19 2 44 8 55 8 16 8 20 -4 20 -10 0 -17 15 -21 44 -6 37 -3 49 16 75 22 30
22 32 5 67 -16 34 -19 36 -52 31 -40 -7 -94 -29 -94 -38 0 -4 7 -9 15 -13 8
-3 15 -14 15 -25 0 -13 -5 -18 -13 -15 -7 2 -23 -6 -36 -20 -18 -19 -22 -33
-19 -65 2 -23 0 -41 -4 -41 -5 0 -8 -13 -8 -29 0 -29 -7 -44 -49 -113 -35 -57
-67 -53 -107 15 -17 29 -34 70 -38 92 -14 83 -18 94 -36 100 -24 8 -60 -11
-60 -30 0 -8 -5 -15 -11 -15 -6 0 -9 7 -5 15 4 10 -1 15 -14 15 -13 0 -20 -7
-20 -19 0 -11 -6 -22 -12 -24 -10 -4 -10 -6 0 -6 14 -1 17 -31 2 -31 -5 0 -10
-11 -10 -25 0 -15 -6 -25 -14 -25 -7 0 -16 -12 -19 -27 -3 -16 -24 -56 -46
-89 -34 -52 -46 -63 -80 -72 -37 -9 -41 -8 -41 9 0 10 -7 19 -15 19 -15 0 -75
80 -75 100 0 24 -33 80 -46 80 -16 0 -19 16 -4 25 17 10 11 52 -7 60 -17 6
-17 7 1 21 12 8 14 14 7 14 -8 0 -11 6 -7 16 9 23 -20 53 -45 47 -10 -3 -19 0
-19 6 0 5 -7 8 -15 5 -11 -5 -15 1 -16 20 -1 14 -2 32 -3 39 -1 9 15 11 57 9
55 -4 57 -3 57 21 0 14 -4 28 -9 31 -10 7 -3 46 8 46 4 0 22 -20 41 -45 18
-24 37 -42 42 -39 4 3 8 -1 8 -8 0 -8 5 -5 11 5 6 11 9 32 7 48 -3 16 1 30 8
33 6 2 14 26 16 53 3 26 11 64 18 83 18 48 22 63 25 80 1 8 4 20 6 25 7 22
-13 55 -34 55 -18 0 -19 2 -7 10 13 8 12 10 -2 10 -10 0 -18 6 -18 13 0 8 -17
19 -39 25 -47 14 -41 15 -67 -6z m-414 -116 c9 -12 8 -15 -9 -13 -21 1 -26 8
-14 20 9 9 9 9 23 -7z m223 -181 c-3 -9 -8 -14 -10 -11 -3 3 -2 9 2 15 9 16
15 13 8 -4z m32 -135 c-13 -6 -15 -9 -5 -9 13 -1 13 -3 1 -10 -17 -11 -41 -3
-41 13 0 6 15 12 33 13 26 1 28 0 12 -7z m-955 -71 c0 -6 -4 -7 -10 -4 -5 3
-10 11 -10 16 0 6 5 7 10 4 6 -3 10 -11 10 -16z m48 -125 c71 -73 93 -118 52
-107 -11 3 -20 9 -20 14 0 5 -7 9 -16 9 -9 0 -18 9 -21 20 -6 22 -70 60 -90
53 -7 -2 -11 4 -11 14 1 10 -2 33 -6 51 -8 32 -7 34 15 27 13 -4 57 -40 97
-81z m432 -209 c7 -9 8 -15 2 -15 -5 0 -12 7 -16 15 -3 8 -4 15 -2 15 2 0 9
-7 16 -15z m-894 -80 c4 -8 12 -15 20 -15 8 0 14 -4 14 -10 0 -16 -18 -12 -40
10 -22 22 -25 30 -10 30 6 0 13 -7 16 -15z m2664 -5 c0 -5 -5 -10 -11 -10 -5
0 -7 5 -4 10 3 6 8 10 11 10 2 0 4 -4 4 -10z m423 -7 c-7 -2 -19 -2 -25 0 -7
3 -2 5 12 5 14 0 19 -2 13 -5z m-3103 -33 c0 -5 -8 -10 -17 -10 -15 0 -16 2
-3 10 19 12 20 12 20 0z m3101 -5 c1 -17 -18 -17 -25 0 -4 11 -1 15 10 13 8
-2 15 -7 15 -13z m-3037 -4 c3 -5 -1 -12 -10 -15 -22 -9 -24 -8 -24 9 0 16 25
21 34 6z m426 -331 c0 -5 -4 -10 -9 -10 -6 0 -13 5 -16 10 -3 6 1 10 9 10 9 0
16 -4 16 -10z m2718 -110 c-7 -11 -16 -20 -20 -20 -5 0 -3 9 4 20 7 11 16 20
20 20 5 0 3 -9 -4 -20z m-783 -510 c3 -11 11 -20 16 -20 5 0 9 -8 8 -17 0 -11
-3 -13 -6 -5 -2 6 -9 12 -15 12 -13 0 -38 26 -38 39 0 19 28 12 35 -9z m192
-100 c1 -11 -2 -18 -8 -15 -11 7 -12 35 -1 35 4 0 8 -9 9 -20z m-1134 -69 c4
-1 7 -7 7 -14 0 -7 9 -23 20 -35 18 -19 18 -52 1 -52 -9 0 -71 87 -71 99 0 5
8 8 18 6 9 -2 20 -4 25 -4z"/>
<path d="M6180 8870 c0 -5 5 -10 11 -10 5 0 7 5 4 10 -3 6 -8 10 -11 10 -2 0
-4 -4 -4 -10z"/>
<path d="M6135 8851 c3 -5 21 -15 41 -21 28 -10 38 -9 47 0 7 7 8 11 2 8 -5
-3 -21 -1 -35 5 -36 15 -62 18 -55 8z"/>
<path d="M3507 8833 c-4 -3 -7 -11 -7 -17 0 -6 5 -5 12 2 6 6 9 14 7 17 -3 3
-9 2 -12 -2z"/>
<path d="M6258 8833 c12 -2 30 -2 40 0 9 3 -1 5 -23 4 -22 0 -30 -2 -17 -4z"/>
<path d="M3450 8780 c-18 -16 -37 -30 -43 -30 -6 0 -7 -3 -4 -6 4 -4 -3 -15
-16 -26 -35 -29 -127 -120 -127 -125 0 -2 4 -1 10 2 6 3 7 -1 4 -9 -3 -9 -10
-14 -14 -11 -4 3 -28 -27 -53 -65 -25 -39 -41 -70 -36 -70 6 0 7 -5 3 -12 -4
-7 -3 -8 5 -4 6 4 9 11 6 16 -3 4 1 10 9 13 7 3 44 50 82 104 37 54 101 131
142 172 40 40 71 75 69 77 -2 3 -19 -9 -37 -26z"/>
<path d="M3525 8780 c-4 -6 -10 -8 -14 -6 -4 3 -21 -9 -37 -27 -16 -18 -53
-54 -82 -80 -54 -49 -109 -123 -100 -133 3 -3 33 9 66 26 32 16 64 30 70 30 5
0 15 14 22 31 7 17 23 45 34 63 48 70 67 106 57 106 -5 0 -13 -5 -16 -10z
m-15 -14 c0 -2 -8 -10 -17 -17 -16 -13 -17 -12 -4 4 13 16 21 21 21 13z"/>
<path d="M6620 8751 c0 -6 4 -13 10 -16 6 -3 7 1 4 9 -7 18 -14 21 -14 7z"/>
<path d="M6655 8749 c-4 -6 -5 -12 -2 -15 2 -3 7 2 10 11 7 17 1 20 -8 4z"/>
<path d="M5658 8743 c6 -2 9 -10 5 -16 -4 -7 -8 -16 -9 -22 -1 -5 -14 -37 -29
-69 -26 -59 -26 -59 -42 -36 -13 19 -14 29 -5 52 11 30 6 57 -12 70 -18 12
-31 9 -18 -4 15 -15 16 -42 2 -33 -12 7 -49 -33 -50 -52 0 -7 -4 -13 -10 -13
-28 0 -108 -73 -110 -101 0 -4 33 -23 74 -42 67 -32 74 -38 84 -73 l10 -39 0
47 c0 36 8 60 37 108 38 63 97 214 87 224 -3 3 -10 6 -16 5 -6 0 -5 -3 2 -6z
m-108 -77 c0 -3 -4 -8 -10 -11 -5 -3 -10 -1 -10 4 0 6 5 11 10 11 6 0 10 -2
10 -4z m20 -116 c0 -5 -5 -10 -11 -10 -5 0 -7 5 -4 10 3 6 8 10 11 10 2 0 4
-4 4 -10z"/>
<path d="M6588 8710 c-3 -22 -2 -27 8 -19 6 5 10 19 7 29 -7 27 -10 25 -15
-10z"/>
<path d="M6611 8723 c-1 -15 34 -53 49 -53 6 0 10 3 10 6 0 9 -28 34 -38 34
-6 0 -13 6 -15 13 -4 10 -6 10 -6 0z"/>
<path d="M6240 8663 c1 -5 30 -30 66 -58 36 -27 92 -78 124 -112 32 -34 56
-53 53 -43 -3 10 2 20 11 23 20 8 20 24 2 43 -11 11 -16 11 -19 1 -4 -8 -6 -7
-6 3 -1 18 -51 61 -62 54 -5 -3 -9 0 -9 5 0 6 -7 11 -16 11 -8 0 -13 4 -9 9 3
5 -9 17 -27 25 -35 18 -52 14 -19 -4 12 -6 21 -16 21 -23 0 -7 -4 -6 -10 3 -5
8 -10 11 -10 6 0 -4 -8 2 -19 15 -10 13 -16 29 -14 36 4 9 -5 13 -26 13 -17 0
-31 -3 -31 -7z"/>
<path d="M5153 8602 c-56 -82 -75 -139 -74 -221 0 -41 3 -76 6 -79 3 -3 5 24
5 60 0 79 11 112 67 205 23 39 43 74 43 77 0 17 -19 1 -47 -42z"/>
<path d="M6764 8628 c-4 -6 0 -14 7 -19 8 -5 15 -4 17 1 2 6 7 8 11 6 4 -3 8
1 8 7 0 16 -34 20 -43 5z"/>
<path d="M6820 8613 c0 -6 -10 -14 -22 -18 -15 -4 -18 -8 -10 -12 9 -3 10 -9
2 -18 -8 -9 -4 -17 14 -29 30 -19 40 -21 30 -4 -5 7 -2 9 8 5 9 -3 19 -3 22 0
10 10 -15 33 -35 33 -11 0 -19 4 -19 9 0 15 18 22 25 10 4 -5 14 -8 22 -5 9 4
11 2 7 -6 -4 -6 0 -16 9 -23 15 -11 14 -13 -8 -25 -14 -7 -25 -16 -25 -20 0
-3 19 -24 42 -45 23 -22 37 -33 30 -24 -6 9 -8 20 -4 24 4 5 1 5 -5 1 -8 -4
-13 -1 -13 8 0 8 -6 17 -12 20 -7 3 -1 3 13 0 30 -6 49 20 21 31 -14 5 -14 7
-2 16 12 7 11 10 -7 15 -11 3 -24 15 -27 27 -3 12 -8 18 -12 14 -4 -4 -16 0
-26 10 -10 9 -18 11 -18 6z"/>
<path d="M3190 8540 c0 -5 5 -10 11 -10 5 0 7 5 4 10 -3 6 -8 10 -11 10 -2 0
-4 -4 -4 -10z"/>
<path d="M5867 8529 c-9 -6 -17 -18 -17 -27 0 -11 3 -13 8 -6 4 6 15 10 25 8
9 -1 17 4 17 11 0 20 -13 25 -33 14z"/>
<path d="M3160 8488 c-12 -22 -12 -22 6 -6 10 10 15 20 12 24 -4 3 -12 -5 -18
-18z"/>
<path d="M4601 8464 c0 -11 3 -14 6 -6 3 7 2 16 -1 19 -3 4 -6 -2 -5 -13z"/>
<path d="M6709 8433 c-1 -7 -2 -19 -3 -25 -1 -7 23 -23 53 -36 30 -12 63 -29
73 -39 17 -15 18 -15 18 1 0 10 5 14 12 10 7 -4 8 -3 4 4 -4 7 -13 12 -21 12
-8 0 -17 5 -21 12 -5 7 -3 8 7 3 8 -5 6 1 -5 13 -10 12 -21 20 -25 19 -3 -1
-19 7 -35 18 -23 15 -30 17 -34 6 -4 -11 -6 -11 -13 0 -7 11 -9 11 -10 2z"/>
<path d="M3101 8342 c-17 -31 -13 -40 5 -14 9 13 14 26 11 29 -3 2 -10 -4 -16
-15z"/>
<path d="M3186 8314 c-20 -19 -36 -41 -36 -49 0 -8 -6 -15 -13 -15 -19 0 -39
-39 -31 -62 4 -14 2 -18 -5 -14 -7 5 -11 -4 -12 -26 -2 -50 -6 -70 -18 -101
-21 -54 -10 -61 17 -10 40 77 87 122 166 160 47 23 61 32 41 29 l-31 -5 1 61
c0 55 -2 61 -21 64 -14 2 -34 -9 -58 -32z"/>
<path d="M5544 8230 c0 -52 1 -74 3 -47 2 26 2 68 0 95 -2 26 -3 4 -3 -48z"/>
<path d="M5841 8284 c0 -11 3 -14 6 -6 3 7 2 16 -1 19 -3 4 -6 -2 -5 -13z"/>
<path d="M3011 7936 c-27 -54 -30 -71 -25 -108 4 -24 12 -46 17 -50 6 -3 10
-20 10 -36 l0 -30 36 33 c30 29 33 35 21 50 -14 17 -16 31 -20 138 -1 37 -4
67 -5 67 -1 0 -16 -29 -34 -64z"/>
<path d="M7204 7889 c6 -35 15 -62 21 -61 16 4 5 86 -15 106 -17 17 -17 16 -6
-45z"/>
<path d="M7030 7831 c0 -29 49 -181 58 -179 4 1 17 -1 29 -6 30 -10 53 4 69
43 13 30 12 34 -9 54 -69 66 -104 93 -115 89 -6 -2 -12 1 -12 7 0 6 -4 11 -10
11 -5 0 -10 -9 -10 -19z"/>
<path d="M5398 7614 c-26 -19 -59 -39 -75 -44 -24 -7 -21 -8 24 -9 39 -1 68 7
123 33 39 19 66 37 61 40 -5 4 -12 2 -16 -3 -7 -12 -49 -5 -53 9 -6 16 -16 12
-64 -26z"/>
<path d="M5488 7643 c7 -3 16 -2 19 1 4 3 -2 6 -13 5 -11 0 -14 -3 -6 -6z"/>
<path d="M7440 7643 c0 -7 4 -14 9 -17 4 -3 11 -24 15 -46 3 -22 10 -40 15
-40 5 0 4 17 -2 38 -12 39 -37 84 -37 65z"/>
<path d="M6956 7579 c-13 -27 -13 -33 -1 -45 8 -9 16 -10 20 -4 3 5 1 10 -4
10 -6 0 -11 5 -11 12 0 6 3 9 6 6 3 -4 13 1 23 10 13 13 14 20 5 30 -18 17
-21 16 -38 -19z"/>
<path d="M7105 7590 c-3 -11 -13 -20 -21 -20 -8 0 -17 -8 -20 -17 -16 -49 -58
-125 -98 -178 l-44 -60 33 -45 c43 -59 95 -148 95 -163 0 -6 12 -22 28 -35 22
-18 23 -22 7 -18 -20 6 -20 1 -18 -187 2 -109 8 -203 14 -219 8 -19 8 -32 -1
-47 -11 -22 -6 -41 10 -41 5 0 7 7 4 15 -5 11 1 15 18 15 29 0 44 25 53 87 4
24 11 45 16 49 5 3 9 24 9 47 0 24 7 53 16 66 13 18 14 25 4 31 -10 6 -10 8 1
12 8 3 9 9 4 18 -5 8 -10 30 -12 50 -2 19 -5 44 -8 56 -2 11 3 30 11 43 9 12
14 24 12 26 -2 3 -32 5 -67 7 -34 1 -65 6 -67 10 -3 4 0 8 6 8 7 0 10 6 7 14
-4 10 0 14 14 11 10 -2 19 0 19 6 0 5 7 9 15 9 8 0 15 6 15 14 0 8 7 17 16 20
8 3 12 11 9 16 -4 6 -2 16 3 23 5 7 13 42 17 79 3 37 11 71 16 74 6 3 3 14 -8
27 -10 11 -12 17 -4 12 9 -5 12 -3 9 6 -2 8 -16 20 -30 27 -31 14 -44 68 -33
132 6 38 5 40 -18 40 -17 0 -28 -7 -32 -20z"/>
<path d="M7362 7560 c-6 -14 -20 -47 -31 -73 l-21 -49 30 -29 c26 -27 30 -28
38 -12 12 22 13 123 3 160 l-8 28 -11 -25z"/>
<path d="M5105 7520 c-16 -7 -17 -9 -3 -9 9 -1 20 4 23 9 7 11 7 11 -20 0z"/>
<path d="M2807 7422 c-7 -15 -15 -58 -16 -95 -2 -62 -1 -68 21 -76 51 -19 75
19 52 86 -9 25 -14 53 -11 63 5 19 -9 50 -23 50 -5 0 -15 -13 -23 -28z"/>
<path d="M2768 7360 c-11 -38 -10 -56 3 -43 6 6 9 23 7 39 l-3 29 -7 -25z"/>
<path d="M7611 7280 c0 -47 -5 -103 -10 -125 -8 -31 -7 -49 6 -84 l17 -44 13
39 c9 25 10 40 3 42 -14 5 -13 23 2 20 22 -5 25 58 6 133 -29 112 -38 116 -37
19z m34 -70 c3 -5 1 -10 -4 -10 -6 0 -11 5 -11 10 0 6 2 10 4 10 3 0 8 -4 11
-10z"/>
<path d="M7480 7322 c0 -4 10 -13 23 -21 22 -14 22 -14 3 8 -20 22 -26 25 -26
13z"/>
<path d="M6838 7258 c-20 -18 -43 -52 -51 -75 -35 -92 -114 -213 -176 -268
-62 -56 -68 -64 -28 -44 16 8 13 2 -11 -23 -30 -30 -82 -103 -82 -113 0 -9 51
-5 90 7 41 13 53 28 23 28 -15 1 -14 4 7 21 14 12 26 16 28 10 2 -6 8 -11 13
-11 4 0 6 6 3 13 -3 8 3 20 12 28 16 13 17 12 11 -11 -6 -23 -3 -25 26 -25 27
0 37 7 59 43 29 43 45 51 67 30 10 -11 11 -9 5 6 -6 16 -3 17 24 11 27 -5 32
-4 32 11 0 13 3 15 11 7 8 -8 6 -17 -10 -34 -11 -12 -18 -25 -15 -28 9 -9 64
57 64 76 0 9 8 25 17 35 16 18 16 19 -5 25 -25 6 -27 24 -12 86 9 36 7 52 -14
112 -24 68 -25 70 -58 68 l-33 -1 28 24 c15 13 24 24 19 24 -5 0 -25 -15 -44
-32z"/>
<path d="M3494 7265 c-10 -8 -14 -14 -9 -15 15 0 40 18 34 24 -3 3 -14 -1 -25
-9z"/>
<path d="M2884 7246 c-3 -8 -3 -19 0 -25 11 -16 -18 -18 -31 -2 -19 26 -45
-14 -37 -59 11 -67 55 -89 136 -69 57 15 57 24 -3 106 -45 61 -57 70 -65 49z"/>
<path d="M7546 7235 c4 -8 8 -15 10 -15 2 0 4 7 4 15 0 8 -4 15 -10 15 -5 0
-7 -7 -4 -15z"/>
<path d="M7405 7159 c-6 -9 -37 -26 -69 -38 -33 -12 -63 -24 -67 -27 -4 -2 3
-30 16 -62 12 -31 31 -92 41 -135 15 -68 19 -75 29 -57 6 11 14 18 17 15 8 -8
15 30 23 115 3 36 11 88 17 115 12 60 8 100 -7 74z"/>
<path d="M2770 7135 c0 -5 5 -17 10 -25 5 -8 10 -10 10 -5 0 6 -5 17 -10 25
-5 8 -10 11 -10 5z"/>
<path d="M4145 7129 c-11 -17 1 -21 15 -4 8 9 8 15 2 15 -6 0 -14 -5 -17 -11z"/>
<path d="M2526 7107 c3 -10 9 -15 12 -12 3 3 0 11 -7 18 -10 9 -11 8 -5 -6z"/>
<path d="M4116 7103 c-6 -14 -5 -15 5 -6 7 7 10 15 7 18 -3 3 -9 -2 -12 -12z"/>
<path d="M4077 7104 c-8 -8 3 -34 14 -34 11 0 12 27 0 34 -4 3 -11 3 -14 0z"/>
<path d="M7620 7000 c0 -5 5 -10 11 -10 5 0 7 5 4 10 -3 6 -8 10 -11 10 -2 0
-4 -4 -4 -10z"/>
<path d="M4221 6979 c-6 -18 -5 -25 6 -27 24 -6 33 11 18 32 -14 18 -15 18
-24 -5z"/>
<path d="M7473 6882 c-58 -85 -60 -95 -24 -141 17 -21 31 -44 31 -50 0 -6 4
-11 9 -11 16 0 31 27 25 43 -3 9 -2 22 2 29 5 7 9 22 9 33 0 11 4 26 9 33 4 7
5 16 2 19 -3 3 -1 11 4 18 5 6 11 27 12 46 3 28 -1 35 -18 37 -15 2 -31 -12
-61 -56z"/>
<path d="M4250 6919 c14 -6 33 -15 43 -20 11 -6 17 -5 17 1 0 11 -9 15 -55 24
-29 5 -29 5 -5 -5z"/>
<path d="M7612 6871 c-12 -38 -16 -78 -8 -70 3 2 7 16 9 29 3 14 8 37 12 53
11 41 0 32 -13 -12z"/>
<path d="M4300 6884 c-29 -15 -26 -17 79 -43 68 -17 70 -17 55 0 -8 9 -30 22
-47 29 -18 6 -39 15 -47 19 -8 4 -26 2 -40 -5z"/>
<path d="M3680 6806 c0 -19 36 -40 56 -32 8 3 14 1 14 -5 0 -6 16 -9 37 -7 38
3 57 -15 26 -26 -10 -4 -19 -2 -21 3 -7 20 -32 11 -38 -14 -3 -14 -10 -22 -15
-19 -13 8 -11 -11 5 -48 8 -18 17 -45 21 -60 6 -29 19 -34 45 -18 12 7 12 12
-4 29 -19 21 -19 21 2 21 16 0 22 6 22 23 0 26 25 65 35 55 4 -3 2 -15 -3 -24
-8 -14 -5 -28 11 -56 19 -32 20 -40 9 -59 -15 -24 -14 -26 13 -29 46 -5 64 1
71 23 4 12 11 25 17 28 11 8 -20 136 -36 146 -5 3 -32 8 -61 12 -40 5 -50 10
-48 23 3 19 -12 25 -79 32 -25 3 -53 8 -62 12 -12 4 -17 1 -17 -10z"/>
<path d="M6930 6781 c0 -6 -22 -20 -50 -32 -27 -12 -55 -27 -61 -35 -6 -8 -30
-19 -53 -24 -60 -15 -115 -41 -113 -52 1 -6 -18 -12 -42 -15 -25 -2 -52 -8
-61 -13 -24 -13 -18 -53 8 -65 18 -8 21 -16 17 -37 -5 -23 -3 -28 17 -33 13
-3 37 -3 53 -1 17 3 33 5 36 5 12 2 16 76 5 90 -9 12 -8 13 6 9 11 -5 18 0 23
15 l6 22 9 -22 c6 -15 15 -20 29 -16 12 3 21 10 21 17 0 6 11 -1 25 -16 14
-15 53 -46 88 -68 l62 -41 -47 41 c-43 38 -60 68 -40 71 4 1 38 2 76 4 48 1
72 6 80 17 6 8 19 14 29 12 22 -3 22 10 0 36 -21 24 -39 26 -47 5 -3 -8 -12
-15 -21 -15 -13 0 -14 4 -5 21 7 11 9 31 6 43 -4 18 0 26 19 34 29 14 24 42
-9 42 -11 0 -31 3 -43 6 -14 4 -23 2 -23 -5z m-150 -111 c0 -5 -5 -10 -11 -10
-5 0 -7 5 -4 10 3 6 8 10 11 10 2 0 4 -4 4 -10z m40 -16 c0 -8 -7 -14 -15 -14
-17 0 -18 2 -9 24 7 18 24 12 24 -10z m35 6 c3 -5 -1 -10 -9 -10 -9 0 -16 5
-16 10 0 6 4 10 9 10 6 0 13 -4 16 -10z m50 -20 c3 -5 -3 -10 -14 -10 -12 0
-21 5 -21 10 0 6 6 10 14 10 8 0 18 -4 21 -10z m-71 -35 c3 -8 1 -15 -4 -15
-6 0 -10 7 -10 15 0 8 2 15 4 15 2 0 6 -7 10 -15z"/>
<path d="M6455 6760 c3 -5 8 -10 11 -10 2 0 4 5 4 10 0 6 -5 10 -11 10 -5 0
-7 -4 -4 -10z"/>
<path d="M4148 6753 c6 -2 12 -11 12 -19 0 -16 2 -16 24 -8 9 3 13 10 10 15
-3 5 -10 7 -15 4 -5 -4 -9 -1 -9 4 0 6 -8 11 -17 10 -11 0 -13 -3 -5 -6z"/>
<path d="M4245 6724 c-11 -64 4 -186 28 -211 11 -13 25 -23 29 -23 5 0 7 10 4
23 -5 19 -5 19 6 -3 16 -33 47 -54 78 -55 14 -1 35 -5 46 -8 15 -5 23 -3 28 8
3 8 1 15 -5 15 -6 0 -9 23 -6 60 2 32 0 63 -5 68 -10 10 0 37 36 97 29 49 22
68 -10 29 -13 -17 -23 -23 -24 -15 0 7 -10 22 -22 32 -17 15 -37 19 -98 19
l-78 0 -7 -36z m193 -160 c0 -17 -3 -22 -8 -13 -5 6 -6 18 -3 26 8 19 11 16
11 -13z m-145 -4 c3 -11 1 -18 -4 -14 -5 3 -9 12 -9 20 0 20 7 17 13 -6z m77
-96 c0 -3 -7 -1 -15 6 -8 7 -15 17 -15 22 0 5 7 3 15 -6 8 -8 15 -18 15 -22z"/>
<path d="M7331 6684 c-57 -52 -76 -84 -50 -84 5 0 8 -4 5 -9 -3 -4 0 -36 6
-70 l12 -62 31 36 c30 33 65 50 49 23 -5 -8 -1 -7 10 2 17 14 17 15 -2 23
l-21 10 22 17 c17 14 22 30 24 80 4 97 -11 103 -86 34z"/>
<path d="M3520 6699 c-8 -18 -9 -34 -4 -39 15 -15 34 4 39 38 5 42 -18 43 -35
1z"/>
<path d="M3580 6697 c0 -35 29 -74 45 -60 4 5 5 -11 1 -34 -5 -33 -3 -44 10
-51 13 -7 14 -12 4 -29 -15 -24 -5 -77 12 -67 8 5 9 2 5 -10 -9 -22 12 -17 27
7 7 12 8 20 1 25 -5 4 -12 16 -13 27 -4 19 -2 18 16 -3 24 -28 33 -12 19 35
-9 28 -12 30 -25 17 -8 -8 -17 -12 -20 -9 -4 3 0 10 8 15 12 8 13 13 2 27 -6
10 -16 28 -22 41 -5 12 -14 22 -19 22 -10 0 -24 34 -25 59 -1 8 -7 16 -13 18
-9 3 -13 -7 -13 -30z"/>
<path d="M4165 6621 c4 -48 6 -50 15 -21 12 39 11 57 -4 57 -9 0 -12 -11 -11
-36z"/>
<path d="M5615 6641 c-19 -17 -147 -83 -194 -98 -31 -10 -90 -16 -177 -17
-124 -2 -134 -3 -171 -28 -22 -14 -59 -33 -84 -41 -43 -15 -69 -40 -29 -30 16
4 19 2 14 -11 -4 -10 -1 -16 7 -17 8 0 22 -2 32 -4 9 -2 17 1 17 6 0 5 27 9
61 9 75 0 221 39 314 84 39 19 95 37 125 41 91 10 114 16 100 25 -9 5 4 11 34
15 30 5 51 4 58 -3 8 -8 17 -8 30 -1 19 10 18 10 32 -35 6 -17 59 -26 83 -13
16 10 16 11 -2 17 -11 4 -28 3 -38 -2 -25 -13 -31 -4 -15 24 25 45 82 66 109
42 10 -9 22 -13 28 -9 7 3 8 0 5 -9 -4 -11 2 -19 19 -25 13 -5 27 -17 30 -25
10 -24 27 -19 27 8 0 13 -7 27 -16 30 -15 6 -14 9 5 25 11 10 21 21 21 24 0
11 -98 14 -183 5 -69 -7 -100 -6 -148 6 -70 18 -82 19 -94 7z m-505 -151 c0
-5 -7 -10 -15 -10 -8 0 -15 -4 -15 -10 0 -5 -7 -10 -16 -10 -8 0 -13 -4 -9 -9
3 -5 1 -12 -5 -16 -5 -3 -10 -2 -10 4 0 7 -8 7 -25 1 -14 -5 -25 -6 -25 -2 0
4 15 14 34 20 19 7 40 19 46 27 14 17 40 20 40 5z m7 -66 c-3 -3 -12 -4 -19
-1 -8 3 -5 6 6 6 11 1 17 -2 13 -5z"/>
<path d="M3472 6609 c12 -16 24 -26 26 -20 4 11 -28 51 -41 51 -4 0 3 -14 15
-31z"/>
<path d="M3524 6625 c-4 -9 -1 -28 5 -43 6 -15 9 -45 7 -66 -2 -26 2 -45 11
-55 11 -11 14 -27 9 -58 -4 -28 -2 -43 5 -43 6 0 9 6 6 13 -3 7 1 21 8 30 7
10 11 27 8 38 -3 11 -1 19 5 17 5 -2 10 0 11 5 3 21 0 26 -14 21 -8 -4 -15 -1
-15 5 0 6 4 11 9 11 16 0 20 27 10 70 -13 57 -52 89 -65 55z"/>
<path d="M6160 6633 c0 -5 7 -21 15 -37 9 -16 13 -31 10 -34 -2 -3 3 -11 12
-17 15 -11 22 -6 50 31 19 24 38 44 43 44 6 0 10 5 10 10 0 6 -30 10 -70 10
-38 0 -70 -3 -70 -7z"/>
<path d="M6438 6603 c6 -2 18 -2 25 0 6 3 1 5 -13 5 -14 0 -19 -2 -12 -5z"/>
<path d="M4577 6579 c-12 -44 -7 -65 19 -90 l26 -24 -7 28 c-4 16 -13 47 -20
69 -11 38 -12 39 -18 17z"/>
<path d="M5895 6590 c-19 -8 -19 -9 3 -9 12 -1 22 4 22 9 0 6 -1 10 -2 9 -2 0
-12 -4 -23 -9z"/>
<path d="M3815 6562 c2 -3 1 -10 -5 -16 -5 -7 -5 -17 0 -26 8 -12 13 -11 27
10 21 30 20 35 -7 36 -11 1 -18 -1 -15 -4z"/>
<path d="M4688 6563 c7 -3 16 -2 19 1 4 3 -2 6 -13 5 -11 0 -14 -3 -6 -6z"/>
<path d="M4728 6553 c6 -2 18 -2 25 0 6 3 1 5 -13 5 -14 0 -19 -2 -12 -5z"/>
<path d="M6050 6505 c-16 -19 -3 -55 20 -55 27 0 34 18 19 46 -14 28 -22 30
-39 9z"/>
<path d="M5870 6503 c-40 -14 -46 -63 -8 -63 10 0 16 5 13 10 -4 6 -12 7 -18
3 -7 -3 -5 2 4 13 17 20 32 45 27 43 -2 0 -10 -3 -18 -6z"/>
<path d="M5910 6499 c0 -5 3 -9 8 -10 4 0 17 -2 30 -3 12 -2 22 3 22 9 0 7
-13 12 -30 13 -16 0 -30 -4 -30 -9z"/>
<path d="M3929 6470 c-19 -10 -44 -23 -56 -29 -13 -6 -23 -15 -23 -21 0 -5
-11 -10 -25 -10 -22 0 -24 3 -16 19 7 13 6 24 -4 37 -12 16 -14 17 -20 3 -3
-8 -7 -36 -8 -61 -1 -25 -4 -44 -7 -43 -4 2 -12 -5 -19 -17 -9 -15 -10 -18 0
-12 9 5 10 -1 6 -25 -6 -27 -4 -34 13 -38 24 -6 25 -11 4 -35 -9 -10 -17 -31
-18 -47 -1 -16 -3 -29 -6 -29 -32 2 -40 -4 -40 -32 0 -40 -17 -38 -28 3 -8 29
-12 32 -44 31 -27 -1 -43 -9 -66 -35 -21 -24 -27 -36 -19 -42 7 -5 3 -6 -9 -2
-26 7 -54 -17 -54 -46 0 -10 -5 -19 -10 -19 -6 0 -8 10 -5 23 6 21 1 26 -40
42 -37 14 -52 15 -71 6 -23 -10 -35 -51 -14 -51 5 0 7 6 4 14 -4 10 0 14 12
12 21 -3 30 -21 15 -31 -6 -3 -11 -23 -11 -44 0 -57 95 -208 152 -240 15 -9
30 -23 33 -31 3 -8 26 -28 52 -43 36 -22 43 -31 32 -38 -8 -5 -19 -9 -26 -9
-24 0 -192 176 -233 245 -54 89 -59 95 -74 89 -17 -7 5 -128 28 -153 9 -10 16
-22 16 -27 0 -5 -5 -2 -10 6 -6 9 -10 10 -10 3 0 -6 5 -15 10 -18 6 -3 10 -14
10 -23 0 -10 10 -23 21 -31 18 -10 19 -15 8 -22 -11 -7 -11 -9 4 -9 9 0 17 -4
17 -10 0 -5 7 -10 16 -10 14 0 14 1 0 16 -9 8 -16 17 -16 20 0 8 58 -25 66
-37 5 -8 3 -9 -6 -4 -9 6 -11 4 -6 -4 5 -7 14 -10 22 -7 20 7 45 -4 37 -17 -3
-5 -1 -7 5 -3 6 3 17 0 24 -8 20 -20 132 -17 134 4 5 47 4 46 17 29 13 -17
109 -25 131 -11 6 4 25 7 42 8 79 3 122 15 146 42 38 41 80 121 73 142 -4 13
0 20 15 25 11 4 18 11 15 16 -4 5 2 9 12 9 11 0 25 6 32 13 11 10 13 10 7 0
-10 -17 14 -16 37 2 14 10 20 30 23 82 2 37 0 74 -5 82 -10 16 -31 6 -31 -15
0 -8 -4 -14 -10 -14 -12 0 -13 24 -4 70 5 21 9 27 15 19 13 -21 23 16 13 49
-5 20 -8 23 -11 9 -7 -26 -23 -10 -23 23 0 32 -9 41 -46 45 -14 1 -31 8 -37
15 -9 10 -7 11 11 5 22 -6 31 8 12 20 -6 4 -8 10 -5 15 3 5 0 12 -6 16 -6 3
-15 1 -19 -6 -5 -9 -9 -9 -14 -1 -4 6 -4 11 0 11 4 0 -1 9 -11 20 -17 19 -17
20 1 26 38 14 43 23 27 54 -8 17 -19 30 -25 30 -6 0 -17 8 -25 18 -10 12 -16
13 -19 5 -4 -8 -13 -9 -29 -3 -16 6 -32 3 -56 -10z m21 -10 c0 -5 -4 -10 -10
-10 -5 0 -10 5 -10 10 0 6 5 10 10 10 6 0 10 -4 10 -10z m-100 -331 c0 -5 -13
-3 -30 6 -16 9 -30 17 -30 20 0 2 14 -1 30 -6 17 -6 30 -15 30 -20z m-163 -82
c10 -13 26 -26 36 -30 18 -7 24 -37 7 -37 -5 0 -10 -10 -11 -22 0 -17 -6 -11
-23 25 -13 26 -34 56 -46 67 -23 20 -23 20 -2 20 11 0 29 -10 39 -23z m-183
-82 c-4 -8 -10 -12 -15 -9 -11 6 -2 24 11 24 5 0 7 -7 4 -15z m231 -96 c-1
-13 8 -33 20 -43 l20 -19 -22 5 c-18 5 -24 -1 -38 -38 -9 -24 -20 -44 -24 -44
-7 0 -31 66 -31 82 0 3 9 8 20 11 14 4 20 14 20 34 0 16 3 33 7 37 13 13 28
-1 28 -25z"/>
<path d="M6000 6470 c0 -5 5 -10 10 -10 6 0 10 5 10 10 0 6 -4 10 -10 10 -5 0
-10 -4 -10 -10z"/>
<path d="M3083 6355 c-9 -25 5 -72 29 -100 13 -15 26 -36 29 -48 6 -20 8 -18
23 16 22 50 19 107 -7 107 -10 0 -16 4 -13 9 3 4 -6 13 -20 20 -32 14 -33 14
-41 -4z"/>
<path d="M7175 6330 c-3 -6 1 -7 9 -4 18 7 21 14 7 14 -6 0 -13 -4 -16 -10z"/>
<path d="M4385 6311 c-16 -7 -11 -10 25 -16 25 -4 50 -10 55 -14 6 -4 26 -8
45 -9 l35 -3 -24 21 c-13 11 -35 20 -50 20 -14 0 -35 2 -46 5 -11 2 -29 0 -40
-4z"/>
<path d="M7132 6288 c-16 -44 -9 -45 11 -3 9 19 13 35 9 35 -4 0 -13 -14 -20
-32z"/>
<path d="M7499 6283 c-13 -16 -12 -17 4 -4 16 13 21 21 13 21 -2 0 -10 -8 -17
-17z"/>
<path d="M4200 6253 c1 -19 23 -53 34 -53 4 0 4 6 0 13 -4 6 1 4 12 -5 16 -14
23 -15 34 -5 10 9 11 9 6 0 -5 -9 0 -13 13 -13 12 0 21 2 21 5 0 12 -57 55
-67 50 -7 -2 -13 2 -13 10 0 8 -9 15 -20 15 -13 0 -20 -7 -20 -17z"/>
<path d="M2980 6246 c0 -2 7 -6 15 -10 8 -3 15 -1 15 4 0 6 -7 10 -15 10 -8 0
-15 -2 -15 -4z"/>
<path d="M6066 6231 c-16 -3 -31 -12 -34 -20 -4 -11 3 -13 31 -8 20 3 39 1 42
-4 4 -5 -3 -10 -14 -10 -29 -2 -33 -3 -59 -18 -13 -7 -30 -10 -39 -7 -9 4 -13
1 -10 -6 2 -7 14 -13 27 -12 19 1 20 -1 8 -10 -22 -16 -34 -76 -17 -87 8 -5
17 -3 21 4 6 9 11 7 19 -6 6 -9 14 -15 20 -12 5 4 9 -4 9 -16 0 -21 -1 -21
-18 -6 -20 19 -34 13 -25 -9 3 -8 0 -14 -6 -14 -18 0 -13 -19 12 -43 14 -15
33 -22 52 -22 29 2 30 3 29 48 0 48 6 54 53 48 6 -1 14 3 18 9 3 5 0 10 -9 10
-8 0 -22 3 -32 7 -12 4 -15 3 -10 -5 4 -7 3 -12 -3 -12 -13 0 -25 62 -17 88 8
24 -17 36 -44 22 -25 -13 -30 -13 -30 5 0 9 10 15 28 16 15 1 32 2 37 3 54 12
75 20 79 32 3 8 13 14 23 14 15 0 16 -2 3 -10 -13 -8 -13 -10 1 -10 23 0 30
11 18 26 -9 11 -16 11 -33 2 -31 -17 -66 -19 -66 -3 0 10 -26 29 -33 24 -1 -1
-15 -4 -31 -8z m-6 -136 c-9 -11 -9 -15 -1 -15 6 0 11 -4 11 -9 0 -5 -13 -4
-30 2 -31 12 -40 27 -16 27 7 0 20 7 27 16 9 11 15 12 17 5 2 -7 -2 -18 -8
-26z m-20 -130 c7 -9 8 -15 2 -15 -5 0 -12 7 -16 15 -3 8 -4 15 -2 15 2 0 9
-7 16 -15z"/>
<path d="M3595 6220 c-3 -5 -3 -10 2 -10 4 0 0 -5 -10 -11 -36 -21 -6 -25 37
-5 24 11 42 24 40 28 -7 12 -62 10 -69 -2z"/>
<path d="M5990 6200 c-12 -8 -11 -10 8 -10 12 0 22 5 22 10 0 13 -11 13 -30 0z"/>
<path d="M6895 6200 c3 -5 11 -10 16 -10 6 0 7 5 4 10 -3 6 -11 10 -16 10 -6
0 -7 -4 -4 -10z"/>
<path d="M6950 6190 c0 -5 5 -10 11 -10 5 0 7 5 4 10 -3 6 -8 10 -11 10 -2 0
-4 -4 -4 -10z"/>
<path d="M4305 6170 c3 -5 8 -10 11 -10 2 0 4 5 4 10 0 6 -5 10 -11 10 -5 0
-7 -4 -4 -10z"/>
<path d="M3468 6153 c7 -3 16 -2 19 1 4 3 -2 6 -13 5 -11 0 -14 -3 -6 -6z"/>
<path d="M6196 6149 c3 -6 1 -15 -6 -19 -8 -5 -2 -10 15 -14 16 -4 32 -3 38 3
8 8 4 11 -11 11 -13 0 -22 6 -22 15 0 8 -5 15 -11 15 -5 0 -7 -5 -3 -11z"/>
<path d="M6130 6140 c0 -5 9 -10 21 -10 11 0 17 5 14 10 -3 6 -13 10 -21 10
-8 0 -14 -4 -14 -10z"/>
<path d="M5366 6112 c-7 -12 10 -35 22 -28 6 3 8 -2 5 -13 -3 -13 2 -23 16
-30 16 -9 22 -8 30 8 17 32 -54 93 -73 63z"/>
<path d="M6150 6086 c0 -16 48 -28 57 -14 3 6 -1 14 -8 19 -21 13 -49 11 -49
-5z"/>
<path d="M4385 6042 c-23 -5 -35 -20 -35 -44 0 -24 14 -22 47 6 30 26 24 46
-12 38z"/>
<path d="M5978 6027 c-10 -8 -14 -18 -8 -26 11 -18 29 -5 27 19 -1 11 -1 20
-2 20 0 0 -8 -6 -17 -13z"/>
<path d="M3198 6004 c-9 -14 11 -56 22 -49 13 8 13 18 -3 40 -8 10 -16 14 -19
9z"/>
<path d="M4256 5984 c-10 -27 -7 -44 9 -44 9 0 15 9 15 24 0 30 -15 42 -24 20z"/>
<path d="M3050 5980 c0 -5 5 -10 11 -10 5 0 7 5 4 10 -3 6 -8 10 -11 10 -2 0
-4 -4 -4 -10z"/>
<path d="M6148 5983 c7 -3 16 -2 19 1 4 3 -2 6 -13 5 -11 0 -14 -3 -6 -6z"/>
<path d="M5870 5951 c0 -11 5 -23 11 -26 5 -4 8 -12 6 -18 -2 -7 0 -21 6 -31
9 -18 11 -16 23 14 8 18 14 43 14 56 0 20 -5 24 -30 24 -23 0 -30 -5 -30 -19z
m44 -27 c3 -8 2 -12 -4 -9 -6 3 -10 10 -10 16 0 14 7 11 14 -7z"/>
<path d="M6013 5912 c3 -29 31 -43 40 -18 4 9 -4 21 -18 30 -23 15 -24 15 -22
-12z"/>
<path d="M5226 5840 c-19 -57 -14 -75 13 -60 10 5 21 6 25 3 6 -6 10 15 9 45
-1 6 3 12 8 12 17 0 9 29 -10 40 -28 14 -27 15 -45 -40z m35 -23 c-1 -4 -3 -6
-4 -4 -2 1 -12 -5 -22 -13 -17 -14 -18 -14 -6 8 11 21 34 27 32 9z"/>
<path d="M5340 5852 c0 -9 -18 -69 -40 -132 -22 -63 -43 -126 -46 -140 -3 -13
-10 -27 -16 -31 -14 -9 -5 -44 12 -44 8 0 17 -11 20 -25 6 -23 8 -21 22 22 9
25 13 49 10 53 -4 4 -2 5 3 3 6 -1 22 9 36 22 15 14 38 33 53 43 24 17 25 19
11 41 -8 12 -13 25 -11 27 3 3 6 23 7 46 2 23 5 41 8 41 3 0 12 0 19 1 23 2
-17 57 -54 75 -32 15 -34 15 -34 -2z m58 -57 c-3 -3 -9 2 -12 12 -6 14 -5 15
5 6 7 -7 10 -15 7 -18z"/>
<path d="M6490 5821 c-14 -4 -20 -10 -15 -13 6 -3 24 0 40 7 32 14 17 18 -25
6z"/>
<path d="M6490 5793 c-8 -3 -35 -15 -60 -26 -37 -17 -41 -22 -23 -25 12 -2 46
11 75 27 47 27 51 40 8 24z"/>
<path d="M5450 5741 c0 -11 5 -23 10 -26 6 -4 10 5 10 19 0 14 -4 26 -10 26
-5 0 -10 -9 -10 -19z"/>
<path d="M3195 5700 c-3 -5 -1 -10 4 -10 6 0 11 -7 11 -15 0 -22 17 -18 23 4
3 12 -1 22 -10 25 -19 8 -21 8 -28 -4z"/>
<path d="M3870 5629 c0 -5 5 -7 10 -4 6 3 10 8 10 11 0 2 -4 4 -10 4 -5 0 -10
-5 -10 -11z"/>
<path d="M6260 5557 c14 -8 31 -11 39 -9 11 4 10 7 -5 13 -10 4 -28 8 -39 8
-17 1 -17 -1 5 -12z"/>
<path d="M3713 5546 c21 -16 22 -26 2 -26 -12 0 -11 -4 5 -20 21 -21 45 -26
55 -10 3 5 12 7 19 4 7 -3 20 2 29 10 21 21 27 20 27 -6 0 -21 1 -21 30 7 44
42 39 55 -18 55 -41 0 -51 -4 -61 -22 -6 -13 -10 -15 -7 -6 6 20 -13 28 -62
28 -33 -1 -35 -2 -19 -14z m57 -20 c0 -11 -19 -15 -25 -6 -3 5 1 10 9 10 9 0
16 -2 16 -4z"/>
<path d="M3557 5499 c7 -7 15 -10 18 -7 3 3 -2 9 -12 12 -14 6 -15 5 -6 -5z"/>
<path d="M3587 5484 c-16 -8 -26 -21 -24 -27 6 -20 42 -19 65 1 44 38 15 56
-41 26z"/>
<path d="M4220 5483 c0 -12 5 -25 10 -28 13 -8 13 15 0 35 -8 12 -10 11 -10
-7z"/>
<path d="M3040 5473 c0 -13 5 -23 10 -23 13 0 13 11 0 30 -8 12 -10 11 -10 -7z"/>
<path d="M4250 5426 c0 -7 -7 -20 -16 -27 -9 -7 -20 -24 -25 -36 -5 -13 -19
-27 -32 -32 -14 -5 -27 -17 -31 -27 -5 -14 -4 -15 8 -5 8 7 20 10 26 6 5 -3
10 -2 10 3 0 11 51 6 98 -9 43 -14 62 -6 62 26 0 31 -14 61 -43 93 -23 24 -57
30 -57 8z"/>
<path d="M4102 5317 c-8 -9 -4 -27 14 -65 14 -29 29 -52 34 -52 10 0 4 44 -10
70 -5 9 -6 26 -3 38 6 25 -17 31 -35 9z"/>
<path d="M3850 5219 c0 -5 5 -7 10 -4 6 3 10 8 10 11 0 2 -4 4 -10 4 -5 0 -10
-5 -10 -11z"/>
<path d="M3572 5180 c-1 -30 2 -40 13 -40 8 0 15 -5 15 -11 0 -5 4 -8 8 -5 12
7 15 86 3 86 -5 0 -12 -6 -14 -12 -3 -8 -6 -6 -6 5 -2 35 -18 16 -19 -23z"/>
<path d="M3277 5193 c-8 -12 -12 -102 -5 -108 7 -8 28 51 28 81 0 23 -15 40
-23 27z"/>
<path d="M3420 5167 c0 -7 6 -21 13 -31 12 -17 14 -17 20 -2 4 9 4 23 1 31 -7
18 -34 20 -34 2z"/>
<path d="M4190 5164 c0 -8 5 -12 10 -9 6 3 10 10 10 16 0 5 -4 9 -10 9 -5 0
-10 -7 -10 -16z"/>
<path d="M4125 5150 c-10 -11 -21 -17 -26 -14 -5 3 -21 -2 -36 -10 l-28 -15
33 4 c23 2 35 -1 39 -11 3 -9 13 -13 27 -9 11 2 15 2 8 -1 -6 -3 -9 -11 -5
-17 6 -9 9 -33 12 -80 1 -16 3 -16 26 -1 14 9 22 21 18 28 -3 6 -3 8 2 4 12
-11 62 22 76 51 18 37 19 48 4 48 -8 0 -11 -7 -7 -15 4 -11 1 -13 -8 -7 -8 5
-11 3 -8 -6 3 -8 -9 -24 -28 -36 -33 -23 -63 -30 -65 -15 0 4 -2 15 -4 25 -2
12 3 17 21 17 13 0 24 5 24 10 0 6 -11 8 -25 4 -25 -6 -35 8 -15 21 6 3 10 12
10 18 0 7 -4 6 -10 -3 -9 -13 -10 -13 -11 0 -1 8 -1 18 0 23 2 12 -5 8 -24
-13z"/>
<path d="M3867 5068 c-15 -17 -26 -32 -25 -34 8 -7 98 40 95 50 -7 23 -43 15
-70 -16z"/>
<path d="M3716 5025 c-26 -19 -2 -19 39 0 29 13 29 13 5 14 -14 0 -34 -6 -44
-14z"/>
<path d="M3572 5000 c-12 -10 -28 -20 -35 -23 -6 -2 -9 -8 -5 -12 8 -8 78 35
78 48 0 12 -14 7 -38 -13z"/>
<path d="M3628 5013 c7 -3 16 -2 19 1 4 3 -2 6 -13 5 -11 0 -14 -3 -6 -6z"/>
<path d="M3410 4980 c0 -5 -6 -7 -14 -4 -8 3 -23 -8 -36 -26 -13 -18 -28 -29
-36 -26 -8 3 -14 -1 -14 -10 0 -11 6 -14 23 -9 36 11 86 35 92 45 3 6 19 10
36 10 27 0 43 19 17 21 -7 0 -25 2 -40 4 -16 2 -28 0 -28 -5z"/>
<path d="M4810 4968 c0 -9 5 -20 10 -23 13 -8 13 5 0 25 -8 13 -10 13 -10 -2z"/>
<path d="M5417 4973 c-11 -19 -17 -133 -8 -133 6 0 10 10 8 22 -1 15 4 23 17
26 11 2 16 0 12 -6 -10 -16 13 -25 29 -12 16 13 20 31 8 29 -19 -3 -33 2 -33
11 0 6 9 10 20 10 27 0 25 15 -6 39 -28 22 -40 26 -47 14z"/>
<path d="M3859 4906 c-11 -23 -10 -29 4 -44 10 -9 17 -11 17 -5 0 7 12 13 26
15 l26 3 -31 29 -30 29 -12 -27z"/>
<path d="M3142 4905 c-22 -12 -22 -12 13 -30 41 -23 50 -18 27 16 -15 22 -20
24 -40 14z"/>
<path d="M3215 4910 c-3 -5 -1 -10 4 -10 6 0 11 5 11 10 0 6 -2 10 -4 10 -3 0
-8 -4 -11 -10z"/>
<path d="M3560 4842 c0 -30 5 -52 11 -52 5 0 7 -6 3 -12 -4 -7 -4 -10 1 -6 4
4 13 4 19 -1 6 -4 18 -10 27 -14 32 -11 0 81 -40 117 l-21 19 0 -51z"/>
<path d="M3380 4811 c5 -11 10 -31 10 -45 0 -23 36 -73 45 -64 2 2 6 18 9 35
5 25 0 37 -23 62 -33 36 -58 42 -41 12z"/>
<path d="M5414 4802 c2 -18 9 -38 16 -45 10 -10 12 -9 7 5 -3 10 -2 20 3 23
16 10 12 28 -4 22 -9 -4 -17 1 -19 11 -3 9 -4 2 -3 -16z"/>
<path d="M5776 4803 c-5 -5 -2 -34 10 -92 5 -23 5 -23 22 -4 9 11 22 18 29 16
24 -8 23 17 -2 33 -14 9 -25 22 -25 29 0 14 -25 27 -34 18z"/>
<path d="M5455 4790 c-4 -7 1 -19 10 -28 10 -10 15 -12 11 -5 -3 6 -1 13 5 15
7 2 6 8 -4 16 -11 10 -17 10 -22 2z"/>
<path d="M3270 4771 c0 -5 5 -13 10 -16 6 -3 10 -2 10 4 0 5 -4 13 -10 16 -5
3 -10 2 -10 -4z"/>
<path d="M3320 4751 c0 -12 6 -21 16 -21 9 0 14 7 12 17 -5 25 -28 28 -28 4z"/>
<path d="M3585 4740 c3 -5 8 -10 11 -10 2 0 4 5 4 10 0 6 -5 10 -11 10 -5 0
-7 -4 -4 -10z"/>
<path d="M5445 4740 c-3 -5 1 -10 10 -10 9 0 13 5 10 10 -3 6 -8 10 -10 10 -2
0 -7 -4 -10 -10z"/>
<path d="M3610 4650 c0 -5 5 -10 10 -10 6 0 10 5 10 10 0 6 -4 10 -10 10 -5 0
-10 -4 -10 -10z"/>
<path d="M3457 4630 c3 -11 9 -17 15 -14 5 3 4 12 -3 20 -16 19 -18 18 -12 -6z"/>
<path d="M5605 4630 c3 -5 8 -10 11 -10 2 0 4 5 4 10 0 6 -5 10 -11 10 -5 0
-7 -4 -4 -10z"/>
<path d="M3457 4593 c-4 -3 -7 -11 -7 -17 0 -6 5 -5 12 2 6 6 9 14 7 17 -3 3
-9 2 -12 -2z"/>
<path d="M5465 4510 c-3 -5 -1 -10 4 -10 6 0 11 5 11 10 0 6 -2 10 -4 10 -3 0
-8 -4 -11 -10z"/>
<path d="M6227 4514 c-4 -4 -7 -14 -7 -23 0 -11 3 -12 11 -4 6 6 10 16 7 23
-2 6 -7 8 -11 4z"/>
<path d="M3481 4436 c-15 -18 5 -34 22 -17 9 9 7 10 -8 5 -18 -7 -18 -6 -6 9
7 9 11 17 8 17 -2 0 -10 -6 -16 -14z"/>
<path d="M5820 4426 c0 -17 11 -25 40 -31 27 -5 25 10 -2 29 -28 20 -38 20
-38 2z"/>
<path d="M3564 4386 c-3 -8 -5 -20 -3 -27 4 -30 -1 -41 -17 -35 -8 3 -12 2 -9
-4 3 -6 2 -10 -3 -10 -5 0 -12 9 -15 20 -3 10 -2 18 2 17 3 -1 7 2 9 8 7 21
-18 15 -39 -9 -13 -14 -29 -26 -37 -26 -7 0 -12 -6 -9 -12 2 -7 11 -12 20 -12
9 1 15 -3 14 -10 -1 -6 5 -9 13 -7 8 2 26 4 40 6 38 3 40 4 40 17 0 6 7 19 15
28 12 13 13 23 6 44 -12 29 -19 33 -27 12z"/>
<path d="M3665 4380 c-3 -5 -1 -10 4 -10 6 0 11 5 11 10 0 6 -2 10 -4 10 -3 0
-8 -4 -11 -10z"/>
<path d="M3600 4311 c-5 -11 -10 -26 -9 -33 0 -7 4 -4 9 7 7 16 9 16 9 4 1
-20 28 -32 37 -17 4 7 3 8 -4 4 -15 -9 -15 -1 -1 26 8 15 8 19 0 14 -6 -4 -11
-2 -11 3 0 18 -19 12 -30 -8z"/>
<path d="M3280 4310 c0 -5 7 -7 15 -4 8 4 15 8 15 10 0 2 -7 4 -15 4 -8 0 -15
-4 -15 -10z"/>
<path d="M3685 4310 c-3 -5 -1 -10 4 -10 6 0 11 5 11 10 0 6 -2 10 -4 10 -3 0
-8 -4 -11 -10z"/>
<path d="M5628 4301 c-22 -21 -23 -31 -4 -31 8 0 16 -7 20 -15 6 -17 41 -20
51 -5 3 5 12 7 20 3 11 -4 13 -1 9 11 -5 12 -2 15 10 10 9 -3 16 -1 16 6 0 6
5 8 11 4 7 -4 10 -1 7 7 -3 8 -13 13 -22 11 -10 -2 -23 1 -29 6 -21 15 -71 11
-89 -7z"/>
<path d="M3533 4243 c-14 -5 -18 -23 -5 -23 5 0 17 7 28 15 14 11 15 14 4 14
-8 0 -21 -3 -27 -6z"/>
<path d="M5510 4110 c0 -5 7 -10 15 -10 8 0 15 5 15 10 0 6 -7 10 -15 10 -8 0
-15 -4 -15 -10z"/>
<path d="M5925 4049 c6 -28 8 -30 25 -19 11 7 11 11 1 24 -19 22 -31 20 -26
-5z"/>
<path d="M5896 4043 c-10 -11 -7 -63 5 -63 5 0 15 -13 20 -30 12 -32 26 -39
35 -17 10 26 -44 126 -60 110z"/>
<path d="M6071 3953 c1 -9 69 -68 69 -60 0 6 -60 67 -66 67 -2 0 -4 -3 -3 -7z"/>
<path d="M5685 3900 c3 -5 10 -10 16 -10 5 0 9 5 9 10 0 6 -7 10 -16 10 -8 0
-12 -4 -9 -10z"/>
<path d="M5594 3865 c-18 -13 -18 -14 4 -8 12 3 25 9 28 14 8 14 -10 11 -32
-6z"/>
<path d="M5711 3867 c2 -1 13 -9 23 -17 11 -8 17 -10 13 -3 -4 6 -1 14 5 16 7
3 0 6 -16 6 -16 1 -27 0 -25 -2z"/>
<path d="M4273 3775 c0 -8 4 -12 9 -9 5 3 6 10 3 15 -9 13 -12 11 -12 -6z"/>
<path d="M6098 3733 c7 -3 16 -2 19 1 4 3 -2 6 -13 5 -11 0 -14 -3 -6 -6z"/>
<path d="M6158 3733 c7 -3 16 -2 19 1 4 3 -2 6 -13 5 -11 0 -14 -3 -6 -6z"/>
<path d="M4660 3466 c-14 -8 -29 -12 -35 -9 -5 4 -7 3 -3 -2 4 -4 1 -20 -7
-36 -23 -43 -19 -93 10 -127 13 -16 23 -31 20 -33 -2 -3 4 -5 13 -6 9 -1 32
-5 49 -9 43 -8 75 1 112 32 56 47 50 147 -13 185 -37 22 -109 25 -146 5z"/>
<path d="M2940 2926 l0 -446 115 0 115 0 0 165 0 165 23 0 c26 0 21 7 142
-218 l60 -112 128 0 c82 0 127 4 127 10 0 6 -16 36 -36 67 -35 56 -154 262
-154 268 0 2 20 15 45 29 50 30 108 100 126 153 15 47 7 159 -15 205 -10 21
-32 51 -49 68 -17 16 -25 30 -19 30 7 0 12 5 12 11 0 8 -4 8 -13 1 -9 -8 -27
-4 -67 16 -55 27 -57 27 -297 30 l-243 4 0 -446z m389 255 c56 -11 80 -41 81
-98 0 -30 -7 -50 -24 -70 -23 -27 -29 -28 -123 -31 l-98 -4 2 99 c1 54 2 101
2 106 1 10 105 8 160 -2z"/>
<path d="M6470 3364 c0 -3 61 -98 135 -210 74 -113 132 -210 129 -216 -4 -7
-2 -8 4 -4 21 12 13 -2 -45 -92 -80 -123 -223 -353 -223 -358 0 -2 57 -4 128
-4 l127 0 63 108 c34 59 70 120 81 135 l18 28 59 -90 c32 -49 71 -110 86 -135
l28 -46 135 0 135 0 -141 211 c-79 120 -138 218 -135 226 3 8 1 11 -4 8 -6 -3
-10 -3 -10 1 0 10 95 166 171 279 36 55 74 115 83 133 l17 33 -127 -3 -126 -3
-77 -127 c-42 -70 -79 -128 -82 -128 -4 0 -22 24 -40 53 -18 28 -55 87 -82
130 l-50 77 -128 0 c-71 0 -129 -3 -129 -6z"/>
<path d="M3980 3186 c-31 -6 -77 -24 -102 -39 -158 -92 -206 -345 -101 -524
90 -155 308 -203 433 -96 l40 35 0 -41 0 -41 110 0 110 0 0 350 c0 273 -3 350
-12 351 -7 0 -58 1 -113 2 l-100 2 4 -39 3 -40 -38 31 c-64 50 -146 67 -234
49z m183 -201 c18 -9 40 -27 51 -41 30 -42 35 -207 6 -189 -5 3 -7 -1 -4 -9 4
-9 -6 -27 -23 -45 -65 -65 -185 -43 -223 41 -24 54 -26 132 -2 178 35 71 123
100 195 65z"/>
<path d="M5255 3189 c-77 -11 -174 -59 -216 -106 -17 -21 -44 -62 -58 -93 -23
-48 -26 -68 -26 -160 0 -87 4 -113 22 -152 32 -70 103 -141 176 -174 56 -26
72 -29 167 -29 93 0 112 3 162 27 31 14 76 45 101 67 24 22 48 37 52 33 5 -4
5 -2 1 5 -4 7 5 35 19 62 66 132 24 359 -82 438 -52 38 -128 71 -178 78 -28 4
-57 8 -65 10 -8 1 -42 -2 -75 -6z m136 -212 c44 -29 69 -80 69 -138 0 -113
-49 -169 -149 -169 -42 0 -56 5 -85 30 -56 49 -69 155 -29 233 33 65 130 87
194 44z"/>
<path d="M4627 3183 c-4 -3 -7 -163 -7 -355 l0 -348 110 0 110 0 0 349 0 349
-22 6 c-31 8 -183 8 -191 -1z"/>
<path d="M5784 3007 c-3 -8 -4 -49 -2 -93 l3 -79 283 -3 282 -2 0 95 0 95
-280 0 c-225 0 -282 -3 -286 -13z"/>
</g>
</svg>
